<svg width="240" height="32" viewBox="0 0 240 32" fill="none" xmlns="http://www.w3.org/2000/svg">
<path d="M26.7525 29.248C26.7525 30.656 25.9205 31.36 24.8965 31.36C23.8085 31.36 23.1045 30.528 23.1045 29.312C23.1045 28.032 23.8725 27.2 24.9605 27.2C26.0485 27.2 26.7525 28.096 26.7525 29.248ZM23.6165 29.312C23.6165 30.144 24.0645 30.976 24.8965 30.976C25.7285 30.976 26.1765 30.208 26.1765 29.312C26.1765 28.48 25.7285 27.648 24.8965 27.648C24.0645 27.648 23.6165 28.48 23.6165 29.312Z" fill="white"/>
<path d="M31.8084 27.264V29.632C31.8084 30.528 32.1924 30.912 32.7684 30.912C33.3444 30.912 33.7284 30.528 33.7284 29.632V27.264H34.2404V29.632C34.2404 30.848 33.6004 31.36 32.7044 31.36C31.8724 31.36 31.2324 30.912 31.2324 29.632V27.264H31.8084Z" fill="white"/>
<path d="M39.8088 27.712H38.5928V27.264H41.6008V27.712H40.3208V31.36H39.8088V27.712Z" fill="white"/>
<path d="M45.8887 27.328C46.2087 27.264 46.5927 27.264 46.9767 27.264C47.7447 27.264 48.2567 27.456 48.6407 27.776C49.0247 28.096 49.2167 28.544 49.2167 29.248C49.2167 29.888 49.0247 30.464 48.6407 30.848C48.2567 31.232 47.6167 31.424 46.8487 31.424C46.4647 31.424 46.1447 31.424 45.8887 31.36V27.328ZM46.4007 30.912C46.5287 30.912 46.7207 30.912 46.9127 30.912C48.0007 30.912 48.6407 30.272 48.6407 29.184C48.6407 28.224 48.1287 27.648 46.9767 27.648C46.7207 27.648 46.5287 27.648 46.3367 27.712V30.912H46.4007Z" fill="white"/>
<path d="M57.1529 29.248C57.1529 30.656 56.3209 31.36 55.2969 31.36C54.2089 31.36 53.5049 30.528 53.5049 29.312C53.5049 28.032 54.2729 27.2 55.3609 27.2C56.4489 27.2 57.1529 28.096 57.1529 29.248ZM54.0169 29.312C54.0169 30.144 54.4649 30.976 55.2969 30.976C56.1289 30.976 56.5769 30.208 56.5769 29.312C56.5769 28.48 56.1289 27.648 55.2969 27.648C54.4649 27.648 54.0169 28.48 54.0169 29.312Z" fill="white"/>
<path d="M65.1529 29.248C65.1529 30.656 64.3209 31.36 63.2969 31.36C62.2089 31.36 61.5049 30.528 61.5049 29.312C61.5049 28.032 62.2729 27.2 63.3609 27.2C64.4489 27.2 65.1529 28.096 65.1529 29.248ZM62.0169 29.312C62.0169 30.144 62.4649 30.976 63.2969 30.976C64.1289 30.976 64.5769 30.208 64.5769 29.312C64.5769 28.48 64.1289 27.648 63.2969 27.648C62.4649 27.648 62.0169 28.48 62.0169 29.312Z" fill="white"/>
<path d="M69.6963 27.328C69.9523 27.264 70.3363 27.264 70.7203 27.264C71.2963 27.264 71.6163 27.392 71.8723 27.584C72.0643 27.776 72.1923 28.032 72.1923 28.352C72.1923 28.864 71.8723 29.248 71.4243 29.376C71.7443 29.504 71.9363 29.76 72.0003 30.208C72.1283 30.784 72.2563 31.168 72.3203 31.296H71.8083C71.7443 31.168 71.6803 30.848 71.5523 30.336C71.4243 29.76 71.2323 29.568 70.7203 29.568H70.2083V31.36H69.6963V27.328ZM70.2083 29.184H70.7203C71.2963 29.184 71.6163 28.864 71.6163 28.416C71.6163 27.904 71.2323 27.648 70.6563 27.648C70.4003 27.648 70.2083 27.648 70.1443 27.712V29.184H70.2083Z" fill="white"/>
<path d="M81.9209 27.264H84.0969V27.712H82.4329V29.056H83.9689V29.504H82.4329V31.36H81.9209V27.264Z" fill="white"/>
<path d="M89.2166 27.264V29.632C89.2166 30.528 89.6006 30.912 90.1766 30.912C90.7526 30.912 91.1366 30.528 91.1366 29.632V27.264H91.6486V29.632C91.6486 30.848 91.0086 31.36 90.1126 31.36C89.2806 31.36 88.6406 30.912 88.6406 29.632V27.264H89.2166Z" fill="white"/>
<path d="M96.4482 27.328C96.7042 27.264 97.0882 27.264 97.4722 27.264C98.0482 27.264 98.3683 27.392 98.6243 27.584C98.8163 27.776 98.9443 28.032 98.9443 28.352C98.9443 28.864 98.6242 29.248 98.1762 29.376C98.4962 29.504 98.6882 29.76 98.7522 30.208C98.8803 30.784 99.0083 31.168 99.0723 31.296H98.5602C98.4962 31.168 98.4323 30.848 98.3043 30.336C98.1763 29.76 97.9842 29.568 97.4722 29.568H96.9602V31.36H96.4482V27.328ZM96.9602 29.184H97.4722C98.0482 29.184 98.3682 28.864 98.3682 28.416C98.3682 27.904 97.9842 27.648 97.4082 27.648C97.1522 27.648 96.9602 27.648 96.8962 27.712V29.184H96.9602Z" fill="white"/>
<path d="M103.488 31.36V27.328H104.064L105.344 29.376C105.664 29.824 105.856 30.272 106.048 30.72C105.984 30.208 105.984 29.696 105.984 29.056V27.392H106.496V31.36H105.984L104.704 29.312C104.448 28.864 104.128 28.416 103.936 27.968C103.936 28.48 104 28.992 104 29.632V31.36H103.488Z" fill="white"/>
<path d="M111.809 27.264V31.36H111.297V27.328H111.809V27.264Z" fill="white"/>
<path d="M117.376 27.712H116.16V27.264H119.168V27.712H117.952V31.36H117.44V27.712H117.376Z" fill="white"/>
<path d="M123.969 27.264V29.632C123.969 30.528 124.353 30.912 124.929 30.912C125.505 30.912 125.889 30.528 125.889 29.632V27.264H126.401V29.632C126.401 30.848 125.761 31.36 124.865 31.36C124.033 31.36 123.393 30.912 123.393 29.632V27.264H123.969Z" fill="white"/>
<path d="M131.137 27.328C131.393 27.264 131.777 27.264 132.161 27.264C132.737 27.264 133.057 27.392 133.313 27.584C133.505 27.776 133.633 28.032 133.633 28.352C133.633 28.864 133.313 29.248 132.865 29.376C133.185 29.504 133.377 29.76 133.441 30.208C133.569 30.784 133.697 31.168 133.761 31.296H133.249C133.185 31.168 133.121 30.848 132.993 30.336C132.865 29.76 132.673 29.568 132.161 29.568H131.649V31.36H131.137V27.328ZM131.713 29.184H132.225C132.801 29.184 133.121 28.864 133.121 28.416C133.121 27.904 132.737 27.648 132.161 27.648C131.905 27.648 131.713 27.648 131.649 27.712V29.184H131.713Z" fill="white"/>
<path d="M140.352 29.44H138.752V30.912H140.48V31.36H138.24V27.328H140.416V27.776H138.752V29.056H140.352V29.44Z" fill="white"/>
<path d="M150.145 30.72C150.401 30.848 150.721 30.976 151.105 30.976C151.617 30.976 151.937 30.72 151.937 30.272C151.937 29.888 151.745 29.696 151.169 29.44C150.529 29.184 150.081 28.864 150.081 28.288C150.081 27.648 150.593 27.2 151.361 27.2C151.745 27.2 152.065 27.264 152.257 27.392L152.129 27.84C152.001 27.776 151.745 27.648 151.361 27.648C150.785 27.648 150.593 27.968 150.593 28.224C150.593 28.608 150.849 28.8 151.425 28.992C152.129 29.248 152.449 29.568 152.449 30.208C152.449 30.848 152.001 31.36 151.041 31.36C150.657 31.36 150.209 31.232 150.017 31.104L150.145 30.72Z" fill="white"/>
<path d="M157.504 27.264V31.36H156.992V27.328H157.504V27.264Z" fill="white"/>
<path d="M162.305 31.36V27.328H162.881L164.161 29.376C164.481 29.824 164.673 30.272 164.865 30.72C164.801 30.208 164.801 29.696 164.801 29.056V27.392H165.313V31.36H164.801L163.521 29.312C163.265 28.864 162.945 28.416 162.753 27.968C162.753 28.48 162.817 28.992 162.817 29.632V31.36H162.305Z" fill="white"/>
<path d="M172.928 31.232C172.736 31.36 172.352 31.424 171.84 31.424C170.688 31.424 169.856 30.72 169.856 29.376C169.856 28.096 170.688 27.264 171.968 27.264C172.48 27.264 172.8 27.392 172.928 27.456L172.8 27.904C172.608 27.84 172.352 27.712 171.968 27.712C171.008 27.712 170.368 28.288 170.368 29.376C170.368 30.336 170.944 30.976 171.904 30.976C172.224 30.976 172.544 30.912 172.736 30.784L172.928 31.232Z" fill="white"/>
<path d="M179.521 29.44H177.921V30.912H179.649V31.36H177.345V27.328H179.521V27.776H177.921V29.056H179.521V29.44Z" fill="white"/>
<path d="M190.337 27.904L189.633 28.288L189.505 27.904L190.337 27.456H190.785V31.36H190.273V27.904H190.337Z" fill="white"/>
<path d="M196.416 30.976C196.544 30.976 196.672 30.976 196.864 30.976C197.184 30.912 197.44 30.784 197.696 30.592C197.952 30.336 198.144 30.016 198.208 29.568C198.016 29.824 197.696 30.016 197.312 30.016C196.608 30.016 196.16 29.504 196.16 28.8C196.16 28.032 196.672 27.392 197.504 27.392C198.272 27.392 198.784 28.032 198.784 29.056C198.784 29.888 198.528 30.528 198.144 30.912C197.824 31.232 197.44 31.36 196.992 31.424C196.8 31.424 196.608 31.488 196.48 31.424V30.976H196.416ZM196.608 28.736C196.608 29.248 196.928 29.568 197.376 29.568C197.76 29.568 198.016 29.376 198.144 29.184C198.144 29.12 198.208 29.056 198.208 28.992C198.208 28.352 197.952 27.84 197.44 27.84C196.928 27.776 196.608 28.16 196.608 28.736Z" fill="white"/>
<path d="M205.569 27.456V27.776L203.841 31.296H203.265L204.929 27.84H203.009V27.392H205.569V27.456Z" fill="white"/>
<path d="M212.481 27.456V27.776L210.753 31.296H210.177L211.841 27.84H209.921V27.392H212.481V27.456Z" fill="white"/>
<path d="M4.864 4.032C5.504 3.264 6.336 2.624 7.232 2.176C8.128 1.728 9.088 1.536 10.112 1.536C10.88 1.536 11.712 1.664 12.544 1.984C13.376 2.24 14.208 2.688 14.848 3.328C15.488 3.904 15.936 4.672 16.064 5.504L16.128 5.696H16.768L16.96 0.832H16.32L16.256 1.024C16.192 1.28 16.128 1.344 16.064 1.408C16.064 1.408 15.936 1.472 15.552 1.472C15.36 1.472 15.168 1.472 14.976 1.408L13.696 1.088C12.416 0.768 11.264 0.576 10.112 0.576C8.32 0.576 6.592 1.024 5.056 1.92C3.52 2.88 2.24 4.096 1.344 5.696C0.448 7.296 0 9.024 0 10.816C0 12.032 0.192 13.248 0.64 14.4C1.088 15.552 1.728 16.64 2.56 17.536C3.392 18.432 4.48 19.2 5.696 19.776C6.912 20.288 8.32 20.608 9.792 20.608C11.2 20.608 12.416 20.416 13.376 19.968C14.336 19.584 15.36 18.944 16.512 18.048L16.576 17.984V16.64L16.192 17.024C15.296 17.856 14.336 18.496 13.248 18.88C10.816 19.712 8.896 19.584 7.232 18.816C6.336 18.432 5.568 17.792 4.864 17.024C4.16 16.256 3.648 15.296 3.328 14.208C2.944 13.12 2.816 11.904 2.816 10.624C2.816 9.28 3.008 8.064 3.392 6.976C3.648 5.824 4.224 4.864 4.864 4.032Z" fill="white"/>
<path d="M106.752 4.032C107.392 3.264 108.224 2.624 109.12 2.176C110.016 1.728 110.976 1.536 112 1.536C112.768 1.536 113.6 1.664 114.432 1.984C115.264 2.24 116.096 2.688 116.736 3.328C117.376 3.904 117.824 4.672 117.952 5.504L118.016 5.696H118.656L118.848 0.832004H118.208L118.144 1.024C118.08 1.28 118.016 1.344 117.952 1.408C117.952 1.408 117.824 1.472 117.44 1.472C117.248 1.472 117.056 1.472 116.864 1.408L115.584 1.088C114.304 0.768004 113.152 0.576004 112 0.576004C110.208 0.576004 108.48 1.024 106.944 1.984C105.408 2.88 104.128 4.16 103.232 5.76C102.336 7.36 101.888 9.088 101.888 10.88C101.888 12.096 102.08 13.312 102.528 14.464C102.976 15.616 103.616 16.704 104.448 17.6C105.28 18.496 106.368 19.264 107.584 19.84C108.8 20.352 110.208 20.672 111.68 20.672C113.088 20.672 114.304 20.48 115.264 20.032C116.224 19.648 117.248 19.008 118.4 18.112L118.464 18.048V16.704L118.08 17.088C117.184 17.92 116.224 18.56 115.136 18.944C112.704 19.776 110.784 19.648 109.12 18.88C108.224 18.496 107.456 17.856 106.752 17.088C106.048 16.32 105.536 15.36 105.216 14.272C104.832 13.184 104.704 11.968 104.704 10.688C104.704 9.344 104.896 8.128 105.28 7.04C105.536 5.824 106.112 4.864 106.752 4.032Z" fill="white"/>
<path d="M24.6403 6.272C27.9043 6.272 30.8483 8.832 30.8483 12.672C30.8483 16.832 27.9683 19.392 24.3843 19.392C20.8643 19.392 18.1123 16.704 18.1123 12.992C18.1123 9.472 20.5443 6.272 24.6403 6.272ZM24.1923 6.976C22.0803 6.976 20.0963 8.832 20.0963 12.416C20.0963 16.064 22.0803 18.688 24.8323 18.688C27.0083 18.688 28.9283 16.896 28.9283 13.184C28.8643 9.152 26.7523 6.976 24.1923 6.976Z" fill="white"/>
<path d="M45.3119 7.10401C44.1599 7.16801 43.7119 7.42401 43.6479 8.25601C43.5839 8.76801 43.5199 9.60001 43.5199 11.392V12.928C43.5199 15.232 43.1999 16.832 42.0479 18.048C41.1519 18.944 39.8719 19.392 38.5919 19.392C37.4399 19.392 36.3519 19.136 35.5199 18.496C34.3679 17.6 33.7919 16.192 33.7919 13.888V9.08801C33.7919 7.36001 33.5999 7.29601 32.1279 7.16801V6.65601H37.1199V7.16801C35.5839 7.29601 35.4559 7.36001 35.4559 9.08801V13.44C35.4559 16.576 36.6719 18.368 39.1039 18.368C41.8559 18.368 42.7519 16.064 42.7519 12.864V11.392C42.7519 9.60001 42.6879 8.83201 42.6239 8.19201C42.4959 7.42401 42.1119 7.23201 40.7679 7.10401V6.59201H45.3759V7.10401H45.3119Z" fill="white"/>
<path d="M59.5845 7.10401C58.4965 7.16801 58.0485 7.42401 57.9845 8.25601C57.9205 8.83201 57.8565 9.72801 57.8565 11.52V19.264H57.2805L49.0245 9.15201H48.9605V14.016C48.9605 15.808 49.0245 16.704 49.0885 17.28C49.2165 18.24 49.6005 18.496 50.9445 18.56V19.072H46.4005V18.56C47.4885 18.496 48.0005 18.24 48.1285 17.28C48.1925 16.704 48.2565 15.744 48.2565 13.952V9.72801C48.2565 8.32001 48.1925 8.25601 47.8725 7.80801C47.4885 7.29601 47.0405 7.16801 46.1445 7.10401V6.59201H48.9605L56.9605 16.192H57.0245V11.52C57.0245 9.72801 56.9605 8.83201 56.8965 8.32001C56.7685 7.42401 56.3845 7.23201 54.9765 7.10401V6.59201H59.5205V7.10401H59.5845Z" fill="white"/>
<path d="M70.848 9.536C70.656 8.64 70.464 8.128 70.272 7.808C69.952 7.36 69.632 7.232 68.16 7.232H66.816V16.768C66.816 18.304 66.944 18.496 68.8 18.624V19.136H63.296V18.56C65.024 18.432 65.216 18.24 65.216 16.704V7.232H64C62.3999 7.232 62.0159 7.36 61.7599 7.808C61.5039 8.128 61.3759 8.704 61.1199 9.536H60.5439C60.6719 8.384 60.7359 7.104 60.7999 6.08H61.1839C61.4399 6.528 61.696 6.592 62.272 6.592H69.888C70.4 6.592 70.592 6.464 70.848 6.08H71.232C71.232 6.976 71.36 8.384 71.424 9.472L70.848 9.536Z" fill="white"/>
<path d="M84.0326 19.264C83.7766 19.264 83.5846 19.264 83.3286 19.264C81.8566 19.2 81.0886 18.752 80.1926 17.536C79.4886 16.576 78.8486 15.424 78.2726 14.464C77.9526 13.952 77.6326 13.696 76.6086 13.696H75.9686V16.768C75.9686 18.368 76.1606 18.496 77.6966 18.624V19.136H72.6406V18.56C74.2406 18.432 74.3686 18.304 74.3686 16.704V8.96001C74.3686 7.29601 74.2406 7.23201 72.7046 7.10401V6.59201H77.5046C78.9126 6.59201 79.8726 6.78401 80.5766 7.23201C81.3446 7.74401 81.8566 8.57601 81.8566 9.72801C81.8566 11.392 80.8326 12.416 79.4246 13.056C79.7446 13.696 80.5766 14.976 81.1526 15.808C81.8566 16.832 82.2406 17.344 82.6886 17.792C83.2006 18.368 83.6486 18.56 84.0966 18.688L84.0326 19.264ZM76.9286 12.992C77.8886 12.992 78.5286 12.864 79.0406 12.416C79.8086 11.84 80.1286 11.072 80.1286 10.048C80.1286 7.93601 78.7846 7.16801 77.3126 7.16801C76.7366 7.16801 76.4166 7.23201 76.2886 7.36001C76.1606 7.48801 76.0966 7.68001 76.0966 8.19201V12.928H76.9286V12.992Z" fill="white"/>
<path d="M94.9766 7.104C93.6326 7.232 93.4406 7.424 92.6726 8.64C91.7766 10.048 91.1366 11.136 90.2406 12.864C89.9846 13.376 89.9206 13.568 89.9206 14.08V16.704C89.9206 18.304 90.0486 18.432 91.8406 18.56V19.072H86.4006V18.56C88.1286 18.432 88.3206 18.304 88.3206 16.704V14.144C88.3206 13.76 88.2566 13.568 87.9366 12.992C87.2326 11.84 86.5286 10.56 85.5046 8.768C84.7366 7.424 84.5446 7.232 83.3926 7.104V6.592H88.0006V7.104C86.5926 7.296 86.6566 7.488 87.0406 8.128C87.8726 9.664 88.8326 11.264 89.6646 12.672C90.3686 11.392 91.3926 9.536 91.9686 8.32C92.4166 7.36 92.3526 7.232 90.8806 7.04V6.528H95.1686V7.104H94.9766Z" fill="white"/>
<path d="M127.424 19.072V18.56C128.64 18.432 128.832 18.24 128.576 17.472C128.32 16.704 127.936 15.68 127.488 14.528H123.392C123.072 15.424 122.816 16.192 122.56 17.024C122.176 18.24 122.304 18.432 123.776 18.56V19.072H119.552V18.56C120.768 18.368 121.088 18.24 121.728 16.576L125.696 6.464L126.272 6.272C127.488 9.6 128.768 13.248 129.984 16.576C130.56 18.24 130.88 18.432 132.096 18.56V19.072H127.424ZM125.504 8.768C124.864 10.432 124.224 12.096 123.648 13.696H127.168L125.504 8.768Z" fill="white"/>
<path d="M139.776 9.472C139.456 8.256 138.944 6.912 137.28 6.912C135.808 6.912 135.168 8 135.168 9.024C135.168 10.432 136.064 11.136 137.6 11.904C139.136 12.672 140.928 13.568 140.928 15.744C140.928 17.792 139.2 19.392 136.64 19.392C135.872 19.392 135.232 19.264 134.72 19.072C134.208 18.88 133.952 18.752 133.76 18.688C133.632 18.304 133.376 16.64 133.248 15.68L133.824 15.552C134.144 16.704 134.976 18.688 136.96 18.688C138.432 18.688 139.264 17.792 139.264 16.384C139.264 14.976 138.176 14.272 136.768 13.504C135.552 12.8 133.568 11.904 133.568 9.728C133.568 7.872 135.04 6.272 137.536 6.272C138.432 6.272 139.264 6.464 139.968 6.72C140.032 7.424 140.16 8.192 140.288 9.408L139.776 9.472Z" fill="white"/>
<path d="M155.008 7.104C153.856 7.168 153.408 7.42399 153.344 8.25599C153.28 8.76799 153.216 9.59999 153.216 11.392V12.928C153.216 15.232 152.896 16.832 151.744 18.048C150.848 18.944 149.568 19.392 148.288 19.392C147.136 19.392 146.048 19.136 145.216 18.496C144.064 17.6 143.488 16.192 143.488 13.888V9.088C143.488 7.35999 143.296 7.29599 141.824 7.16799V6.65599H146.816V7.16799C145.28 7.29599 145.152 7.35999 145.152 9.088V13.44C145.152 16.576 146.368 18.368 148.8 18.368C151.552 18.368 152.448 16.064 152.448 12.864V11.392C152.448 9.59999 152.384 8.832 152.32 8.192C152.192 7.424 151.808 7.232 150.464 7.104V6.592H155.072V7.104H155.008Z" fill="white"/>
<path d="M162.176 19.072V18.56C163.392 18.432 163.584 18.24 163.328 17.472C163.072 16.704 162.688 15.68 162.24 14.528H158.144C157.824 15.424 157.568 16.192 157.312 17.024C156.928 18.24 157.056 18.432 158.528 18.56V19.072H154.304V18.56C155.52 18.368 155.84 18.24 156.48 16.576L160.448 6.464L161.024 6.272C162.24 9.6 163.52 13.248 164.736 16.576C165.312 18.24 165.632 18.432 166.848 18.56V19.072H162.176ZM160.256 8.768C159.616 10.432 158.976 12.096 158.4 13.696H161.92L160.256 8.768Z" fill="white"/>
<path d="M178.24 16.064C178.112 16.64 177.728 18.496 177.536 19.072H168.832V18.56C170.432 18.432 170.624 18.304 170.624 16.64V8.96C170.624 7.296 170.496 7.232 168.896 7.104V6.592H173.952V7.104C172.416 7.232 172.224 7.296 172.224 8.96V16.576C172.224 17.6 172.352 17.984 172.672 18.176C173.056 18.368 173.696 18.432 174.528 18.432C175.616 18.432 176.256 18.304 176.704 17.856C177.024 17.472 177.408 16.832 177.664 15.936L178.24 16.064Z" fill="white"/>
<path d="M238.464 17.536C238.72 17.536 238.976 17.6 239.232 17.728C239.488 17.856 239.68 18.048 239.808 18.304C239.936 18.56 240 18.816 240 19.072C240 19.328 239.936 19.584 239.808 19.84C239.68 20.096 239.488 20.288 239.232 20.416C238.976 20.544 238.72 20.608 238.464 20.608C238.208 20.608 237.952 20.544 237.696 20.416C237.44 20.288 237.248 20.096 237.12 19.84C236.992 19.584 236.928 19.328 236.928 19.072C236.928 18.816 236.992 18.56 237.12 18.304C237.248 18.048 237.44 17.856 237.696 17.728C237.888 17.6 238.144 17.536 238.464 17.536ZM238.464 17.728C238.208 17.728 238.016 17.792 237.76 17.92C237.568 18.048 237.376 18.176 237.248 18.432C237.12 18.624 237.056 18.88 237.056 19.136C237.056 19.392 237.12 19.584 237.248 19.84C237.376 20.032 237.568 20.224 237.76 20.352C237.952 20.48 238.208 20.544 238.464 20.544C238.72 20.544 238.912 20.48 239.168 20.352C239.36 20.224 239.552 20.032 239.68 19.84C239.808 19.648 239.872 19.392 239.872 19.136C239.872 18.88 239.808 18.688 239.68 18.432C239.552 18.24 239.36 18.048 239.168 17.92C238.912 17.792 238.656 17.728 238.464 17.728ZM237.568 18.176H238.336C238.592 18.176 238.784 18.24 238.912 18.304C239.04 18.368 239.104 18.496 239.104 18.688C239.104 18.816 239.04 18.88 238.976 18.944C238.912 19.008 238.784 19.072 238.656 19.136L238.976 19.712C239.04 19.776 239.04 19.84 239.104 19.904L239.168 19.968V20.032H238.656L238.208 19.2H238.08V19.648C238.08 19.776 238.08 19.84 238.144 19.904C238.208 19.968 238.272 19.968 238.336 19.968V20.032H237.376V19.968C237.44 19.968 237.504 19.968 237.568 19.904C237.632 19.84 237.632 19.776 237.632 19.648V18.56C237.632 18.432 237.632 18.368 237.568 18.304C237.568 18.24 237.504 18.24 237.44 18.24V18.176H237.568ZM238.208 19.072C238.272 19.072 238.272 19.072 238.336 19.072C238.464 19.072 238.528 19.008 238.592 18.944C238.656 18.88 238.72 18.752 238.72 18.624C238.72 18.496 238.72 18.432 238.592 18.368C238.528 18.304 238.4 18.304 238.272 18.304H238.208V19.072Z" fill="white"/>
<path d="M197.312 5.952C197.056 4.992 196.672 4.032 196.352 3.52C195.904 2.752 195.584 2.496 193.984 2.496H191.04V16.832C191.04 19.136 191.296 19.456 194.048 19.648V20.48H186.24V19.648C188.992 19.456 189.248 19.2 189.248 16.832V2.496H186.56C184.96 2.496 184.448 2.688 183.936 3.584C183.552 4.16 183.36 4.864 182.976 5.952H182.08C182.272 4.16 182.464 2.304 182.528 0.639999H183.232C183.68 1.344 184 1.344 184.832 1.344H195.712C196.544 1.344 196.8 1.216 197.184 0.639999H197.888C197.888 2.048 198.016 4.16 198.144 5.888L197.312 5.952Z" fill="white"/>
<path d="M208.448 16C208.32 16.512 207.808 18.496 207.616 19.072H198.272V18.56C200.064 18.432 200.192 18.24 200.192 16.64V9.024C200.192 7.296 200 7.232 198.528 7.104V6.592H204.416C206.208 6.592 206.976 6.592 207.232 6.528C207.232 7.04 207.36 8.448 207.424 9.472L206.848 9.6C206.656 8.96 206.464 8.512 206.272 8.128C205.952 7.488 205.504 7.36 204.352 7.36H202.496C201.92 7.36 201.856 7.424 201.856 8V12.288H203.968C205.44 12.288 205.504 11.968 205.76 10.688H206.336V14.656H205.76C205.504 13.248 205.376 13.056 203.968 13.056H201.856V16.896C201.856 18.24 202.304 18.368 203.264 18.368H205.056C206.208 18.368 206.4 18.176 206.848 17.664C207.232 17.28 207.616 16.448 207.872 15.872L208.448 16Z" fill="white"/>
<path d="M217.024 19.072V18.56C218.304 18.432 218.432 18.24 218.176 17.472C217.92 16.704 217.536 15.744 217.152 14.528H212.992C212.672 15.424 212.416 16.128 212.096 16.96C211.648 18.24 211.968 18.368 213.504 18.56V19.072H209.024V18.56C210.24 18.432 210.56 18.24 211.2 16.512L215.168 6.4L215.808 6.272C217.024 9.536 218.368 13.184 219.584 16.512C220.224 18.176 220.352 18.368 221.76 18.496V19.008H217.024V19.072ZM215.104 8.832C214.464 10.496 213.824 12.224 213.248 13.76H216.832L215.104 8.832Z" fill="white"/>
<path d="M223.36 6.528H228.48V7.04C227.008 7.168 226.688 7.296 226.688 9.024V12.352C227.072 12.288 227.52 12.032 228.096 11.456C229.184 10.432 230.464 9.152 231.36 8.128C231.936 7.488 231.872 7.232 231.04 7.104L230.528 7.04V6.528H235.2V7.04C233.728 7.232 233.28 7.296 231.936 8.64C231.36 9.216 229.824 10.688 228.608 11.904C230.08 13.632 232.192 16.128 233.216 17.152C234.176 18.24 234.432 18.368 235.648 18.496V19.008H232.576C231.104 17.344 229.504 15.488 227.776 13.44C227.328 12.928 227.008 12.864 226.688 12.864V16.512C226.688 18.176 226.88 18.304 228.48 18.432V18.944H223.36V18.56C224.96 18.432 225.088 18.304 225.088 16.64V9.088C225.088 7.36 224.96 7.232 223.36 7.104V6.528Z" fill="white"/>
</svg>
