<svg width="91" height="89" viewBox="0 0 91 89" fill="none" xmlns="http://www.w3.org/2000/svg">
<path d="M19.3644 53.1895L25.5827 36.443C25.5828 36.4429 25.5828 36.4429 25.5828 36.4428C25.7609 35.9629 26.0487 35.5328 26.4236 35.1886C26.7986 34.8443 27.2498 34.596 27.7403 34.4646L19.3644 53.1895ZM19.3644 53.1895C19.3644 53.1895 19.3644 53.1896 19.3644 53.1896C19.2133 53.5954 19.2061 54.0419 19.3419 54.4536C19.4777 54.8652 19.7492 55.2195 20.1123 55.4548L20.1123 55.4548L20.1127 55.455L58.6036 80.433L58.6041 80.4333C58.8204 80.5733 59.0631 80.6671 59.3172 80.7079C59.5712 80.7487 59.8307 80.7356 60.0792 80.6691C60.3276 80.6025 60.5589 80.4841 60.7585 80.3217C60.9581 80.1594 61.1214 79.9568 61.2387 79.7273L61.239 79.7268L82.0836 38.8467L82.0837 38.8466C82.2798 38.4617 82.3375 38.0199 82.2495 37.5961C82.1615 37.1724 81.9326 36.7899 81.5999 36.5141L81.5997 36.514L67.8409 25.1199C67.8408 25.1199 67.8408 25.1199 67.8408 25.1198C67.4466 24.7932 66.9823 24.5647 66.4855 24.4541C65.9885 24.3434 65.4736 24.3539 64.9832 24.4854C64.9831 24.4854 64.9831 24.4854 64.9831 24.4854L27.7404 34.4646L19.3644 53.1895Z" fill="#909AF2" stroke="#909AF2"/>
<path d="M39.5768 52.6282L39.5788 52.6276L39.2018 55.4391C39.1924 55.4991 39.1316 55.591 39.0026 55.6255C38.8777 55.659 38.7816 55.6144 38.7408 55.5688L38.7388 55.5663L36.5464 52.7233L36.5459 52.7226C35.646 51.56 34.2845 50.7913 32.7521 50.5567L32.7504 50.5564L30.119 50.163C30.0133 50.1452 29.9696 50.0841 29.9592 50.0451C29.9487 50.0062 29.9561 49.9306 30.0405 49.8618L30.0571 49.8483L32.1207 48.2066L32.122 48.2056C33.332 47.2365 34.1268 45.89 34.3247 44.4332L34.426 43.6884L34.4242 43.6888L34.797 40.909C34.8209 40.8414 34.8914 40.7621 35.0113 40.73C35.1299 40.6982 35.2301 40.7308 35.2848 40.7769L37.4566 43.5932L37.4572 43.5939C38.2929 44.6736 39.5267 45.4135 40.9257 45.7013L40.9285 45.7116L41.2527 45.7601L43.5634 46.1055L43.5663 46.1163L43.9009 46.1575C44.0095 46.1709 44.0525 46.2322 44.0622 46.2681C44.0718 46.3039 44.0652 46.3788 43.9774 46.4451L43.9774 46.445L43.9676 46.4527L41.8827 48.1113L41.8814 48.1124C40.672 49.0813 39.8769 50.4267 39.6783 51.883L39.5768 52.6282Z" fill="white" stroke="#909AF2"/>
<path d="M10.1334 68.6371L10.135 68.6373L11.7364 68.8767L11.7391 68.887L12.0324 68.9232L10.5315 70.1171L10.5302 70.1181C9.62165 70.846 9.02142 71.8593 8.87132 72.9604L8.87118 72.9615L8.52357 75.5536C8.52279 75.5548 8.52132 75.5568 8.51879 75.5595C8.51094 75.5679 8.49658 75.578 8.47579 75.5836C8.4548 75.5892 8.43732 75.5875 8.4265 75.5843C8.42299 75.5832 8.42073 75.5822 8.41945 75.5816L6.82234 73.5105L6.82179 73.5098C6.14139 72.6307 5.1145 72.0526 3.96336 71.8763L3.9616 71.8761L2.06337 71.5923L3.5654 70.3974L3.56671 70.3964C4.47568 69.6683 5.07567 68.6542 5.22536 67.5528L5.22547 67.5519L5.56815 64.9966C5.57002 64.9939 5.57276 64.9905 5.57674 64.9866C5.5878 64.9759 5.60536 64.9647 5.62878 64.9584C5.65195 64.9522 5.67255 64.9531 5.6874 64.9569C5.69278 64.9582 5.69685 64.9598 5.69983 64.9612L7.27431 67.0029L7.27486 67.0036C7.95522 67.8827 8.98216 68.461 10.1334 68.6371Z" fill="#909AF2" stroke="#909AF2"/>
<path d="M74.7705 10.7066L74.7724 10.7061L74.5245 12.5545C74.5238 12.5558 74.5223 12.5578 74.5198 12.5605C74.5119 12.5688 74.4976 12.579 74.4768 12.5845C74.4557 12.5902 74.4381 12.5885 74.4272 12.5853C74.4241 12.5843 74.422 12.5834 74.4206 12.5828L72.8233 10.5115L72.8228 10.5108C72.1424 9.63169 71.1155 9.0536 69.9643 8.87732L69.9626 8.87706L68.0643 8.59328L69.5664 7.39842L69.5677 7.39737C70.4766 6.66934 71.0769 5.6552 71.2266 4.5537L71.3278 3.80885L71.3262 3.80929L71.5691 1.99758C71.571 1.99488 71.5737 1.99149 71.5777 1.98762C71.5888 1.97684 71.6063 1.96564 71.6298 1.95936C71.653 1.95315 71.6737 1.95405 71.6886 1.95785C71.6938 1.95915 71.6977 1.96063 71.7006 1.96199L73.2753 4.00391L73.2758 4.00461C73.8913 4.79978 74.7903 5.3487 75.8083 5.57654L75.8118 5.58986L76.136 5.63832L77.7373 5.87771L77.7401 5.888L78.0333 5.92413L76.5325 7.11805L76.5312 7.11912C75.6227 7.84696 75.0222 8.86029 74.8721 9.96148L74.7705 10.7066Z" fill="#909AF2" stroke="#909AF2"/>
</svg>
