<svg width="168" height="28" viewBox="0 0 168 28" fill="none" xmlns="http://www.w3.org/2000/svg">
<path d="M48.8749 14.0069C48.8749 21.6807 47.9827 24.1925 45.9389 25.9719C43.8951 27.7512 40.8588 28 37.6115 28C34.3643 28 31.328 27.7512 29.2842 25.9719C27.2403 24.1925 26.3516 21.691 26.3516 14.0069C26.3516 6.3228 27.2403 3.81787 29.2842 2.0385C31.328 0.259132 34.3643 0.0138207 37.6115 0.0138207C40.8588 0.0138207 43.8986 0.259132 45.9389 2.0385C47.9793 3.81787 48.8749 6.32971 48.8749 14.0069ZM42.5084 5.74235C41.5262 4.81293 40.4957 4.40178 37.6115 4.40178C34.7274 4.40178 33.7003 4.81293 32.7182 5.74235C31.736 6.67177 31.2761 7.90869 31.2761 14.0069C31.2761 20.1051 31.698 21.304 32.7182 22.268C33.7383 23.232 34.7274 23.612 37.6115 23.612C40.4957 23.612 41.5262 23.1974 42.5084 22.268C43.4905 21.3386 43.9504 20.1051 43.9504 14.0069C43.9504 7.90869 43.5285 6.70632 42.5084 5.74235ZM71.2876 19.8425C71.0559 21.1797 70.6824 21.7567 70.1429 22.2611C69.1608 23.1905 68.1337 23.6051 65.2496 23.6051C62.3654 23.6051 61.3349 23.1905 60.3527 22.2611C59.3706 21.3317 58.9107 20.0982 58.9107 14C58.9107 7.90178 59.3326 6.69941 60.3527 5.73544C61.3729 4.77147 62.362 4.39487 65.2496 4.39487C68.1372 4.39487 69.1608 4.80602 70.1429 5.73544C70.6824 6.24679 71.0559 6.82379 71.2876 8.154H75.7833C75.3925 4.81293 74.5487 3.24432 73.1793 2.02468C71.1769 0.245311 68.2029 0 65.0248 0C61.8467 0 58.8692 0.245311 56.8703 2.02468C54.8715 3.80405 53.9965 6.31589 53.9965 13.9931C53.9965 21.6703 54.868 24.1787 56.8703 25.958C58.8726 27.7374 61.8329 28 65.0144 28C68.196 28 71.1666 27.7512 73.1689 25.9719C74.5522 24.7522 75.3821 23.1871 75.7729 19.8425H71.2876ZM110.926 27.6441L113.402 20.6303H124.171L126.65 27.6441H131.806L121.411 0.369694H116.224L105.821 27.6441H110.926ZM118.786 5.38302L122.687 16.4393H114.889L118.786 5.38302ZM86.1476 27.6441V16.6431L97.736 27.6441H104.254L89.6993 13.8274L103.812 0.369694H97.6669L86.1476 11.3258V0.359329H81.4029V27.6338L86.1476 27.6441ZM14.611 16.2078C17.0006 15.8623 18.415 15.0503 19.5493 13.4437C20.6317 11.9062 20.7666 10.6797 20.7666 8.82083C20.7666 6.96199 20.5833 4.78875 19.5009 3.25123C17.8755 0.946692 15.7798 0.386968 11.0213 0.386968H0V27.6614H4.74121V16.4324H8.19942C8.51581 16.432 8.82729 16.5105 9.10567 16.6607C9.38404 16.8109 9.62051 17.0281 9.79366 17.2927L16.6063 27.6579H22.5891L14.611 16.2078ZM4.74121 12.383V4.4156H10.9037C12.6813 4.4156 14.1061 4.4156 15.1366 5.45212C15.9078 6.22261 16.0254 7.44916 16.0254 8.40967C16.0254 9.37019 15.9078 10.5967 15.1366 11.3638C14.0991 12.4003 12.6813 12.4003 10.9037 12.4003L4.74121 12.383ZM149.741 16.2078C152.13 15.8623 153.545 15.0503 154.679 13.4437C155.765 11.9062 155.896 10.6797 155.896 8.82083C155.896 6.96199 155.713 4.78875 154.631 3.25123C153.005 0.946692 150.91 0.386968 146.151 0.386968H135.126V27.6614H139.871V16.4324H143.329C143.646 16.432 143.957 16.5105 144.235 16.6607C144.514 16.8109 144.75 17.0281 144.923 17.2927L151.736 27.6579H157.719L149.741 16.2078ZM139.871 12.383V4.4156H146.03C147.808 4.4156 149.232 4.4156 150.263 5.45212C151.034 6.22261 151.152 7.44916 151.152 8.40967C151.152 9.37019 151.034 10.5967 150.263 11.3638C149.225 12.4003 147.808 12.4003 146.03 12.4003L139.871 12.383Z" fill="white"/>
<path d="M164.962 21.6364H163.848C162.627 21.6364 161.637 22.6253 161.637 23.8452V24.9583C161.637 26.1783 162.627 27.1672 163.848 27.1672H164.962C166.183 27.1672 167.173 26.1783 167.173 24.9583V23.8452C167.173 22.6253 166.183 21.6364 164.962 21.6364Z" fill="white"/>
</svg>
