<svg width="49" height="48" viewBox="0 0 49 48" fill="none" xmlns="http://www.w3.org/2000/svg">
<path d="M47.3656 25.9972H21.9856C21.6051 25.9972 21.2354 26.0429 20.8736 26.1379C20.5214 26.2311 20.1823 26.3682 19.8643 26.546C19.552 26.7188 19.267 26.937 19.0186 27.1934C18.7731 27.4428 18.5791 27.7381 18.4475 28.0625L13.1489 40.5157L7.54192 28.1731C7.21796 27.468 6.7232 26.9307 6.05659 26.5574C5.38998 26.1836 4.55568 25.9967 3.56148 25.9967H0V26.4354C0.834299 26.4354 1.56528 26.641 2.19036 27.0527C2.80768 27.4579 3.28715 28.0413 3.56511 28.7254V44.2807C3.56511 44.7952 3.47374 45.2567 3.29099 45.6679C3.11799 46.064 2.85908 46.4168 2.53301 46.7005C2.20084 46.9842 1.81659 47.2003 1.40175 47.337C0.950761 47.486 0.478573 47.5607 0.00363415 47.5582V48H7.92351V47.5582C7.42459 47.5582 6.95994 47.4855 6.52539 47.337C6.09137 47.1885 5.71394 46.9788 5.39413 46.7005C5.06775 46.417 4.80879 46.0643 4.63615 45.6679C4.4534 45.2567 4.36203 44.7952 4.36203 44.2807V30.3754L11.378 45.8013H11.6407L18.5695 29.5411L18.5924 44.2807C18.5924 44.7952 18.501 45.2567 18.3182 45.6679C18.1452 46.064 17.8863 46.4167 17.5603 46.7005C17.2286 46.9849 16.8442 47.2012 16.429 47.337C15.9781 47.4863 15.5059 47.561 15.0309 47.5582V48H32.911L33.8361 41.0458H33.5277C33.2293 41.8645 32.8465 42.6498 32.3856 43.3893C31.9254 44.132 31.3665 44.8087 30.7242 45.4011C30.0914 45.9851 29.3671 46.4614 28.5801 46.8111C27.7878 47.1621 26.9229 47.3412 25.9858 47.3412H22.36V37.1738C24.0888 37.1738 25.4147 37.5892 26.329 38.4162C27.2427 39.2432 27.8792 40.4892 28.2291 42.1433H28.5801L27.3081 31.5835H26.9535C26.9535 32.4333 26.8736 33.1726 26.7137 33.7935C26.5533 34.4186 26.2906 34.9331 25.9323 35.3448C25.5741 35.7565 25.1022 36.0613 24.5155 36.2591C23.9289 36.4574 23.2124 36.5565 22.36 36.5565V26.6561H24.4927C25.5175 26.6561 26.4011 26.8087 27.1441 27.1176C27.8828 27.426 28.5038 27.8569 29.0027 28.4171C29.5016 28.9731 29.8941 29.6361 30.1796 30.406C30.4652 31.1759 30.6676 32.0216 30.7855 32.9478H31.0939C31.1967 32.0523 31.3794 31.218 31.6421 30.4403C31.9053 29.6631 32.2708 28.9845 32.7427 28.4051C33.2116 27.8263 33.7946 27.3689 34.4913 27.0293C35.1885 26.6903 36.0187 26.5231 36.9864 26.5231V47.9964H44.3072V47.5546C43.8082 47.5546 43.3436 47.4819 42.9132 47.3334C42.4792 47.1849 42.1018 46.9752 41.7819 46.6969C41.4569 46.4153 41.198 46.0654 41.024 45.6721C40.8412 45.2682 40.7498 44.803 40.7498 44.2734V26.4276C41.602 26.4242 42.4401 26.645 43.1801 27.0678C43.9405 27.499 44.6335 28.0395 45.237 28.672C45.8488 29.3117 46.3843 30.0203 46.8329 30.7834C47.2784 31.5456 47.6288 32.2656 47.8764 32.94H48.1848L47.3656 25.9972ZM46.672 15.0527C46.3727 15.8711 45.9898 16.6564 45.5293 17.3962C45.0706 18.14 44.5117 18.8171 43.8685 19.4085C43.2354 19.9922 42.5112 20.4683 41.7243 20.818C40.9315 21.169 40.0671 21.3476 39.13 21.3476H35.5229V11.1813C37.2522 11.1813 38.574 11.5966 39.4919 12.4236C40.4062 13.2543 41.0421 14.4967 41.3926 16.1544H41.7472L40.471 5.5909H40.1165C40.1165 6.44077 40.0365 7.18006 39.8766 7.80151C39.7167 8.42606 39.454 8.94056 39.0958 9.35225C38.7376 9.76395 38.2651 10.0687 37.6785 10.267C37.0918 10.4648 36.3722 10.564 35.5229 10.564V0.663495H38.2501C39.1871 0.663495 40.0521 0.838973 40.8443 1.18993C41.6315 1.5391 42.3558 2.0153 42.9885 2.59946C43.6318 3.19088 44.1906 3.868 44.6493 4.61175C45.1105 5.35112 45.4935 6.13653 45.792 6.95527H46.1009L45.1752 0.000519871H28.7924V0.442849C29.7601 0.442849 30.4953 0.701913 31.0015 1.22419C31.5082 1.74596 31.7636 2.49667 31.7636 3.47997V10.564H23.3837V3.47945C23.3837 2.49615 23.635 1.74544 24.1303 1.22367C24.6287 0.701393 25.368 0.44233 26.3508 0.44233V0H2.11768L1.192 6.95111H1.50039C1.74803 6.2762 2.12495 5.55975 2.63217 4.8054C3.14452 4.04337 3.73831 3.33939 4.40304 2.70589C5.05959 2.07414 5.79596 1.53098 6.5934 1.09025C7.37786 0.659341 8.16648 0.44233 8.95872 0.44233V18.284C8.95872 18.8135 8.86735 19.2787 8.6846 19.6826C8.50832 20.0746 8.24982 20.4241 7.92662 20.7075C7.5943 20.9911 7.20987 21.2073 6.79484 21.3439C6.34446 21.4947 5.87215 21.5694 5.39725 21.5651V22.0074H12.7222V0.44233C13.735 0.44233 14.6649 0.545125 15.5142 0.750714C16.3636 0.956823 17.0946 1.29584 17.7041 1.76465C18.3136 2.23345 18.786 2.85489 19.1214 3.6243C19.4604 4.3937 19.6276 5.35052 19.6276 6.49736V18.284C19.6276 18.7985 19.5362 19.26 19.3535 19.6712C19.1817 20.0682 18.9226 20.4213 18.5955 20.7043C18.2633 20.9878 17.879 21.2038 17.4642 21.3403C17.0137 21.4911 16.5412 21.5658 16.0661 21.5615V22.0033H26.3591V21.5615C24.3779 21.5615 23.3915 20.5517 23.3915 18.5244V11.2228H31.7714V18.528C31.7714 19.557 31.5315 20.3191 31.044 20.8144C30.5602 21.3138 29.8136 21.5615 28.8007 21.5615V22.0033H46.063L46.9887 15.0527H46.672Z" fill="white"/>
</svg>
