<svg width="271" height="308" viewBox="0 0 271 308" fill="none" xmlns="http://www.w3.org/2000/svg">
<path d="M192.138 110.89C201.177 100.545 214.312 93.8363 234.226 96.1313C243.972 97.4849 253.234 101.204 261.214 106.971C261.767 107.383 262.191 107.96 262.426 108.619C262.662 109.278 262.697 109.984 262.521 110.667C262.344 111.338 261.979 111.95 261.461 112.421C260.943 112.891 260.296 113.197 259.614 113.291C241.9 115.492 231.225 118.717 221.139 134.477L192.138 110.902V110.89Z" fill="#E3CDF7"/>
<g style="mix-blend-mode:multiply" opacity="0.1">
<path d="M252.493 107.371C254.223 108.195 253.859 110.749 251.964 111.055C241.477 112.726 233.627 115.398 226.682 122.154C225.376 123.425 223.234 123.095 222.363 121.507C220.845 118.729 218.456 114.763 215.69 111.632C213.218 108.831 214.713 104.417 218.35 103.605C226.271 101.828 238.935 100.886 252.493 107.383V107.371Z" fill="#3F4AAF"/>
</g>
<path d="M56.5654 313.434C39.7584 306.655 28.0241 294.167 21.6567 277.572C18.5849 270.039 16.3015 261.553 14.4184 253.362C12.7353 245.523 9.98125 237.826 5.24987 231C-4.73078 216.017 -23.2915 210.167 -39.51 218.3C-42.8291 219.948 -45.8892 221.96 -48.4079 224.573C-36.5088 225.385 -25.1275 227.198 -18.7837 237.037C-15.2881 242.628 -13.7228 250.761 -12.9931 257.87C-11.6631 269.086 -8.62653 279.82 -2.84764 289.918C4.69669 303.5 18.9144 315.176 34.6386 317.071C42.0653 317.977 50.0333 317.247 56.5537 313.422L56.5654 313.434Z" fill="#FC8955"/>
<path d="M56.5654 313.434C38.4167 306.513 22.6101 296.521 13.6769 279.655C10.3696 273.641 7.72149 266.555 5.74419 259.611C4.20237 253.785 2.50755 248.171 -0.211235 242.628C-10.0742 221.431 -32.154 209.014 -54.5751 219.371C-58.1296 221.042 -61.4251 223.102 -64.1674 225.786C-43.6412 225.797 -29.753 231.776 -24.3154 252.338C-23.0679 256.61 -22.2793 261.377 -21.5025 265.861C-19.5605 276.089 -15.8766 285.811 -9.61516 294.661C-0.0229111 308.632 16.8783 318.365 33.6617 318.601C41.6298 318.73 49.6449 317.424 56.5654 313.434Z" fill="#FDD466"/>
<path d="M56.5653 313.434C33.0614 304.312 7.53305 294.191 -5.9314 272.017C-9.36813 266.638 -11.5337 260.376 -14.3585 254.633C-17.8187 247.595 -22.0793 240.698 -27.7052 234.436C-36.1205 224.82 -50.1852 216.264 -63.3201 220.772C-66.6744 221.925 -69.6286 223.808 -71.7707 226.233C-72.3121 226.857 -71.8295 227.81 -71.0056 227.739C-67.9926 227.48 -65.1915 227.798 -62.7551 228.516C-53.9162 231.364 -49.8203 238.862 -45.8422 247.077C-43.2882 252.608 -41.1579 258.646 -39.157 264.861C-36.8973 272.393 -34.508 280.043 -30.2945 286.799C-21.5967 301.652 -6.17854 312.728 10.1812 316.859C25.7171 320.755 42.124 320.248 56.5889 313.446L56.5653 313.434Z" fill="#95DCBC"/>
<g style="mix-blend-mode:multiply" opacity="0.1">
<path d="M11.1464 317.059C14.3596 305.56 18.3259 293.508 23.2221 281.268C29.8484 296.015 41.0413 307.161 56.5654 313.422C55.8357 313.846 55.0942 314.234 54.341 314.576C50.3158 316.518 45.9845 317.636 41.5474 318.177C31.5785 319.99 21.1859 319.437 11.1464 317.047V317.059Z" fill="#3F4AAF"/>
</g>
<path d="M201.849 321.225C218.209 343.87 223.117 375.366 224.576 393.197C224.635 394.009 224.529 394.821 224.27 395.586C223.999 396.351 223.576 397.057 223.022 397.657C222.469 398.258 221.798 398.728 221.057 399.046C220.315 399.376 219.503 399.541 218.691 399.541H182.723C181.37 399.541 180.051 399.07 179.004 398.211C177.956 397.351 177.239 396.163 176.968 394.833C174.237 380.909 166.764 368.363 155.806 359.347C144.849 350.332 131.102 345.4 116.907 345.4C102.713 345.4 88.9663 350.332 78.0088 359.347C67.0513 368.363 59.5658 380.909 56.847 394.833C56.5763 396.163 55.8584 397.351 54.7991 398.211C53.7516 399.07 52.4334 399.541 51.0799 399.541H15.0531C14.2527 399.541 13.4524 399.376 12.7109 399.058C11.9694 398.74 11.3103 398.269 10.7572 397.681C10.204 397.092 9.78029 396.398 9.50958 395.645C9.23888 394.892 9.1212 394.079 9.16827 393.279C11.2986 361.277 21.8795 277.878 74.4073 210.85L78.3266 164.195L154.099 85.0326L179.875 204.318C147.308 242.569 172.342 280.373 201.849 321.225Z" fill="#E3CDF7"/>
<g style="mix-blend-mode:multiply" opacity="0.1">
<path d="M40.8052 266.438L40.7816 266.403C41.276 265.32 41.8174 264.272 42.3235 263.201C42.4176 263.001 42.5118 262.801 42.6059 262.601C43.571 260.577 44.5479 258.564 45.5601 256.575C46.6076 254.504 47.6904 252.42 48.785 250.349C48.938 250.055 49.1028 249.76 49.2558 249.466C56.3293 236.319 64.6387 223.302 74.3957 210.85L78.315 164.195L132.961 87.9398L141.447 111.291L98.135 164.195L94.2157 210.85C85.6475 221.772 78.209 233.142 71.7357 244.641C75.7727 247.642 79.8333 250.478 83.7408 253.221C86.8127 255.351 89.7904 257.422 92.6504 259.506L110.905 298.91L111.458 308.491C99.1943 303.642 85.9652 299.358 72.7597 292.696L72.5714 292.602C62.3318 287.317 49.8325 292.414 46.3016 303.383C34.0023 341.505 30.1772 375.401 28.9885 393.279C28.9414 394.08 29.0473 394.892 29.3298 395.645C29.6005 396.398 30.0242 397.093 30.5774 397.681C31.1305 398.27 31.7896 398.74 32.5311 399.058C33.2726 399.376 34.073 399.541 34.8733 399.541H15.0532C14.2529 399.541 13.4526 399.376 12.7111 399.058C11.9696 398.74 11.3105 398.27 10.7573 397.681C10.2041 397.093 9.78044 396.398 9.50974 395.645C9.23903 394.892 9.12135 394.08 9.16843 393.279C10.7338 369.775 16.854 318.542 40.817 266.438H40.8052Z" fill="#3F4AAF"/>
</g>
<g style="mix-blend-mode:multiply" opacity="0.1">
<path d="M105.208 151.39C104.008 147.435 102.972 143.433 102.054 139.408L138.999 100.804C139.034 101.722 139.258 102.616 139.658 103.452C142.683 109.56 146.12 115.457 149.945 121.106C155.453 129.333 160.902 136.03 166.328 141.644L179.875 204.318C171.801 213.804 167.27 223.267 165.469 232.753C153.134 229.175 141.671 222.796 132.067 213.91C115.836 198.904 106.244 178.06 105.385 155.98L105.208 151.401V151.39Z" fill="#3F4AAF"/>
</g>
<path d="M231.426 193.513L228.966 130.475C228.719 124.084 227.224 117.788 224.541 111.973C221.869 106.159 218.068 100.933 213.372 96.5787C208.676 92.2357 203.156 88.8578 197.153 86.6451C191.151 84.4324 184.76 83.4202 178.369 83.6792L114.672 86.1743L116.92 143.669C117.779 165.749 127.383 186.593 143.613 201.587C159.843 216.594 181.358 224.538 203.45 223.667C207.263 223.526 211.018 222.631 214.501 221.031C217.974 219.442 221.104 217.17 223.694 214.369C226.295 211.568 228.319 208.284 229.637 204.694C230.967 201.117 231.579 197.303 231.426 193.478V193.513Z" fill="#E3CDF7"/>
<path d="M114.672 86.186C118.662 76.8174 151.594 84.7383 151.594 84.7383L178.358 83.6908C184.749 83.4319 191.14 84.4441 197.142 86.6568C203.145 88.8695 208.665 92.2473 213.361 96.5903C218.057 100.933 221.858 106.171 224.53 111.985C227.202 117.799 228.708 124.084 228.955 130.487L230.168 161.465C233.228 163.736 235.841 166.561 237.818 169.986C248.422 188.358 232.851 218.912 215.562 228.893C201.073 237.249 185.584 232.482 174.698 219.901C163.246 216.217 152.606 210.073 143.614 201.752C128.384 187.664 118.992 168.444 117.191 147.871C117.062 146.482 116.979 145.093 116.92 143.704L116.744 139.208C114.825 132.9 113.272 126.473 112.118 119.977C110.271 108.69 110.141 96.8375 114.672 86.2095V86.186Z" fill="#E3CDF7"/>
<path d="M210.253 23.9717C205.945 33.2932 201.131 39.5311 191.974 41.3201C181.617 43.1091 169.718 42.45 158.902 42.4029C146.355 42.2852 131.596 47.4168 125.382 59.6807C117.543 74.7929 128.301 91.3999 143.872 94.2717C144.849 90.7055 147.556 73.4865 151.993 75.911C153.041 76.9821 152.37 79.1477 151.981 80.2423C151.522 81.3604 151.817 81.6311 152.758 81.8665C154.359 82.1607 156.395 82.2549 158.137 82.3608C163.363 82.5727 168.459 82.4197 173.708 81.6899C186.972 79.9363 201.567 74.1456 210.37 63.0704C219.645 52.1835 221.116 34.0818 210.241 23.9717H210.253Z" fill="#FDD466"/>
<g style="mix-blend-mode:multiply" opacity="0.1">
<path d="M197.152 86.6451C203.155 88.8577 208.675 92.2356 213.371 96.5786C218.067 100.922 221.868 106.159 224.54 111.973C226.047 115.257 227.165 118.682 227.918 122.201C219.267 124.673 209.557 124.049 201.319 121.542C190.22 118.211 181.593 112.985 173.036 106.253C168.587 102.628 163.915 98.4735 159.301 95.4017C151.474 89.7993 139.422 88.5635 129.077 88.9048C129.23 87.7749 129.477 86.6686 129.771 85.5858L178.368 83.6909C184.759 83.4319 191.15 84.4441 197.152 86.6568V86.6451Z" fill="#3F4AAF"/>
</g>
<path d="M226.766 139.185C224.612 147.541 218.763 153.261 213.702 151.955C210.547 151.143 208.441 147.788 207.817 143.339C210.583 136.76 217.08 123.872 222.87 131.782C224.471 133.959 225.86 135.395 227.378 135.913C227.248 136.984 227.048 138.078 226.766 139.173V139.185Z" fill="#C591E7"/>
<path d="M225.506 138.196C223.529 145.846 218.174 151.084 213.548 149.895C210.653 149.153 208.723 146.07 208.158 142.009C210.688 135.983 216.644 124.19 221.94 131.428C223.4 133.417 224.682 134.736 226.071 135.206C225.954 136.183 225.765 137.184 225.506 138.196Z" fill="white"/>
<path d="M214.108 145.939C211.118 145.168 209.804 140.237 211.173 134.924C212.542 129.612 216.076 125.93 219.066 126.7C222.056 127.471 223.37 132.402 222.001 137.715C220.632 143.027 217.098 146.709 214.108 145.939Z" fill="#909AF2"/>
<path d="M214.801 143.249C212.642 142.693 211.691 139.139 212.677 135.312C213.663 131.485 216.213 128.834 218.372 129.39C220.531 129.946 221.482 133.5 220.496 137.327C219.509 141.154 216.96 143.805 214.801 143.249Z" fill="#10132C"/>
<path d="M213.666 137.042C212.847 137.042 212.183 136.379 212.183 135.56C212.183 134.74 212.847 134.077 213.666 134.077C214.485 134.077 215.149 134.74 215.149 135.56C215.149 136.379 214.485 137.042 213.666 137.042Z" fill="white"/>
<g style="mix-blend-mode:multiply" opacity="0.1">
<path d="M123.193 71.2504C132.962 59.5161 149.028 52.5484 164.705 50.3122C175.45 48.8881 187.585 49.2765 197.989 48.1231C204.545 47.358 209.159 47.1815 214.702 44.8746C215.844 44.3215 216.891 43.6859 217.88 42.9797C217.762 50.2063 215.079 57.5623 210.383 63.0705C201.579 74.1339 186.985 79.9364 173.72 81.69C168.471 82.4198 163.363 82.5845 158.149 82.3609C156.407 82.255 154.359 82.1608 152.77 81.8666C151.841 81.6312 151.546 81.3605 151.994 80.2424C152.382 79.1478 153.065 76.9822 152.005 75.9111C148.733 74.1222 146.403 83.02 145.014 89.2344C141.012 89.2108 137.011 89.2814 132.997 89.5286C127.207 85.2562 123.334 78.7712 122.84 71.7094C122.958 71.5564 123.076 71.4034 123.193 71.2621V71.2504Z" fill="#3F4AAF"/>
</g>
<path d="M262.286 36.0004C259.072 42.8856 254.988 49.9003 247.938 52.572C242.925 54.1491 238.935 53.7372 233.215 53.6548C224.152 53.4665 213.759 51.5245 204.379 51.5598C190.667 51.7599 176.097 56.609 166.398 66.9898C161.561 72.2979 157.536 79.136 157.748 86.5509C175.649 84.4324 192.186 90.07 209.558 91.8355C223.199 93.2831 237.746 91.9179 250.386 84.9973C257.542 81.0898 264.286 74.6871 267.535 66.9663C272.09 56.5972 270.395 43.886 262.286 36.0004Z" fill="#95DCBC"/>
<g style="mix-blend-mode:multiply" opacity="0.1">
<path d="M166.399 66.9898C171.213 61.8465 177.227 58.0566 183.736 55.5144C187.114 56.2088 190.385 57.1857 193.493 58.445C198.33 60.2693 202.779 62.7763 207.004 65.4715C217.032 71.627 226.883 78.0532 237.688 82.0902C248.221 85.9977 257.955 77.5589 265.123 71.1327C265.158 71.2151 265.181 71.2975 265.229 71.3799C261.615 77.1117 256.142 81.8548 250.399 84.9855C237.758 91.9061 223.211 93.2714 209.57 91.8237C193.022 90.1524 177.215 84.962 160.279 86.3037C159.467 86.0095 158.619 85.7388 157.772 85.4916C157.937 78.4887 161.809 72.039 166.411 66.978L166.399 66.9898Z" fill="#3F4AAF"/>
</g>
<path d="M172.49 91.9258C173.159 92.9805 175.499 94.8745 180.203 98.6611C182.744 100.709 181.997 99.9499 185.433 102.662C190.147 106.372 191.428 107.623 193.717 107.976C195.041 108.174 195.99 107.898 197.159 107.56C199.261 106.935 200.706 105.786 202.418 103.965C204.889 101.346 208.632 97.2569 210.283 90.2744C210.57 89.0953 210.716 88.1005 210.8 87.476C211.974 86.3278 213.318 84.8926 214.652 83.116C214.652 83.116 216.223 80.9984 217.55 78.6525C220.499 73.4143 221.718 68.2512 222.294 64.4751C223.438 63.3665 224.619 62.0787 225.778 60.5642C228.739 56.6292 230.342 52.6365 231.238 49.4391C231.565 47.7896 231.862 46.1796 232.148 44.5828C232.957 43.719 233.769 42.7537 234.533 41.6263C237.314 37.6372 238.526 33.5124 239.084 30.3068C242.341 24.7618 244.633 20.1266 246.137 16.873C247.487 13.9185 248.411 11.6817 247.728 11.1594C247.48 10.9695 246.745 10.8042 242.235 14.1596C239.181 16.4158 236.892 18.4433 235.44 19.7955C234.95 19.9849 234.457 20.2124 233.968 20.4651C229.684 22.6571 227.068 25.9797 225.457 28.9222C223.135 29.5463 218.388 31.2175 215.04 35.7544C213.651 37.6351 212.871 39.5227 212.394 41.0786C209.656 41.9896 204.904 44.0535 201.374 48.7642C200.039 50.5408 199.171 52.319 198.577 53.8682C193.502 56.3535 188.062 60.2497 184.3 66.4532C183.929 67.067 183.574 67.6926 183.269 68.3156C183.005 68.4683 182.649 68.6762 182.263 68.9236C174.191 74.1053 168.375 85.3751 172.505 91.9377L172.49 91.9258Z" fill="#FC6DFF"/>
<path d="M212.39 41.055C211.694 43.0271 211.761 44.644 211.928 45.7114C212.655 50.4214 216.586 52.6776 220.051 59.2107C221.211 61.3924 221.891 63.2693 222.265 64.4529C222.643 61.1932 221.987 58.7708 221.352 57.2207C219.569 52.8301 216.368 51.1951 213.948 45.8368C213.03 43.82 212.603 42.0949 212.385 41.03L212.39 41.055Z" fill="#CF42D2"/>
<path d="M197.61 59.5382C197.385 65.5243 200.719 70.6843 202.068 72.7805C204.321 76.2991 205.445 76.5332 207.688 80.4194C209.327 83.2603 210.261 85.7699 210.785 87.4649C210.796 85.9074 210.683 83.546 209.915 80.7242C208.012 73.8207 204.063 71.0084 201.351 64.4877C200.3 61.9714 199.171 58.2691 199.155 53.4345C198.506 54.7333 197.703 56.812 197.61 59.5382Z" fill="#CF42D2"/>
<path d="M225.442 28.9106C224.983 30.2503 225.013 31.3375 225.13 32.0531C225.626 35.2304 228.273 36.7543 230.604 41.1677C231.376 42.6349 231.843 43.8897 232.11 44.699C232.368 42.496 231.922 40.8604 231.504 39.831C230.303 36.8666 228.148 35.7607 226.498 32.1608C225.876 30.7873 225.6 29.6368 225.432 28.9238L225.442 28.9106Z" fill="#CF42D2"/>
<path d="M181.512 75.4067C181.258 82.3309 185.105 88.3004 186.668 90.7274C189.286 94.7971 190.575 95.0735 193.168 99.5622C195.06 102.846 196.142 105.741 196.751 107.71C196.774 105.911 196.631 103.171 195.739 99.9002C193.536 91.9106 188.971 88.6485 185.837 81.1366C184.622 78.2236 183.317 73.948 183.301 68.3412C182.552 69.8349 181.625 72.2364 181.512 75.4067Z" fill="#CF42D2"/>
<path d="M234.918 21.7345C234.855 23.5858 235.89 25.1915 236.303 25.8415C236.993 26.933 237.358 27.0031 238.034 28.2093C238.547 29.0821 238.834 29.865 238.999 30.3882C238.998 29.9073 238.968 29.1746 238.727 28.3008C238.146 26.1657 236.921 25.2911 236.08 23.2705C235.758 22.502 235.415 21.3422 235.401 19.8492C235.191 20.2523 234.943 20.8978 234.918 21.7345Z" fill="#CF42D2"/>
<path d="M248.503 76.2642C242.159 82.6904 233.532 91.1293 224.222 87.2217C214.666 83.1848 205.932 76.7585 197.058 70.603C193.315 67.9078 189.384 65.4009 185.1 63.5766C170.659 56.9503 151.745 57.9389 139.717 68.8493C133.891 74.1104 129.654 81.0309 129.077 88.893C139.375 87.8808 151.486 88.3399 159.654 93.4126C164.456 96.1784 169.4 100.015 174.072 103.346C183.041 109.502 191.985 114.151 203.284 116.763C215.866 119.718 231.461 118.27 241.312 108.76C250.186 100.357 252.964 87.3159 248.503 76.2524V76.2642Z" fill="#FC8955"/>
<path d="M110.163 244.04C109.48 251.796 107.068 259.294 103.101 265.991C92.3791 250.878 74.8541 238.32 60.3539 220.901C46.2303 203.776 35.2611 181.779 46.8541 154.65C52.2446 142.715 60.4481 135.053 69.6166 130.628C67.7099 153.238 80.8448 173.823 91.873 191.642C103.16 209.743 112.458 225.103 110.163 244.04Z" fill="#95DCBC"/>
<path d="M114.095 288.882C115.649 294.249 116.579 299.781 116.861 305.36C116.885 306.019 116.72 306.655 116.39 307.231C116.061 307.796 115.59 308.267 115.013 308.573C114.437 308.891 113.789 309.032 113.13 308.997C112.471 308.961 111.847 308.75 111.306 308.373C97.1823 298.487 80.2458 291.142 64.0272 279.502C46.1374 266.485 29.2009 247.936 30.7427 218.171C31.696 205 36.5216 195.208 43.195 188.311C48.2206 211.073 65.9457 227.68 80.9637 242.192C96.4172 256.987 109.152 269.545 114.083 288.882H114.095Z" fill="#FDD466"/>
<g style="mix-blend-mode:multiply" opacity="0.1">
<path d="M43.4412 259.929C41.97 254.08 41.2992 247.677 41.664 240.651C42.5821 227.951 47.1016 218.394 53.4219 211.544C48.7611 204.53 45.089 196.856 43.2058 188.311C36.5325 195.208 31.7069 205 30.7536 218.171C29.8591 235.531 35.2378 249.078 43.4412 259.929Z" fill="#3F4AAF"/>
</g>
<path d="M122.133 201.882C118.661 209.037 113.494 215.252 107.08 219.96C101.054 202.964 86.7301 186.228 77.1967 165.819C67.9458 145.811 63.4851 122.142 83.9525 100.451C92.2383 91.9062 103.243 86.4921 115.071 85.1504C106.126 105.359 113.447 128.298 119.485 148.059C125.746 168.162 130.725 185.098 122.133 201.882Z" fill="#FC8955"/>
<g style="mix-blend-mode:multiply" opacity="0.1">
<path d="M52.5988 210.32C51.8573 201.905 53.1167 192.831 57.2714 183.109C61.732 173.234 68.1112 166.29 75.373 161.688C71.2537 151.86 68.6997 141.48 69.6177 130.628C60.4492 135.053 52.2457 142.715 46.8552 154.65C37.5219 176.483 42.8065 194.996 52.5988 210.32Z" fill="#3F4AAF"/>
</g>
<g style="mix-blend-mode:multiply" opacity="0.1">
<path d="M75.2311 161.312C74.3484 148.6 77.8675 135.477 89.6371 123.013C95.5926 116.87 102.937 112.362 110.987 109.796C110.564 101.404 111.564 93.0713 115.071 85.1504C103.243 86.4921 92.25 91.8944 83.9524 100.451C65.0033 120.53 67.4161 142.315 75.2311 161.312Z" fill="#3F4AAF"/>
</g>
<path d="M168.953 211.756C179.558 230.129 198.283 238.85 215.573 228.869C232.851 218.889 248.434 188.335 237.829 169.962C227.225 151.59 198.33 150.448 181.041 160.429C163.763 170.41 158.349 193.384 168.953 211.756Z" fill="#C591E7"/>
<g style="mix-blend-mode:multiply" opacity="0.5">
<g style="mix-blend-mode:multiply" opacity="0.5">
<path d="M226.307 201.599C226.307 199.94 226.53 198.103 227.436 196.456C228.26 194.961 230.073 194.855 231.756 195.655C233.427 196.468 233.38 197.739 232.215 198.174C230.155 199.045 228.684 200.422 227.848 201.893C227.483 202.564 226.354 202.364 226.295 201.599H226.307Z" fill="#10132C"/>
</g>
</g>
<g style="mix-blend-mode:multiply" opacity="0.5">
<g style="mix-blend-mode:multiply" opacity="0.5">
<path d="M215.643 206.13C213.595 204.577 211.135 203.317 208.381 202.505C205.274 201.611 203.297 198.751 205.827 196.044C208.381 193.301 213.466 193.478 215.784 196.373C217.538 198.551 218.35 201.293 219.08 203.882C219.551 205.965 217.173 207.354 215.643 206.13Z" fill="#10132C"/>
</g>
</g>
<g style="mix-blend-mode:multiply" opacity="0.5">
<g style="mix-blend-mode:multiply" opacity="0.5">
<path d="M200.448 218.288C199.224 217.041 191.562 215.687 188.749 210.026C185.301 205.165 185.689 198.186 182.511 195.502C179.192 192.16 171.307 203.906 180.581 214.663C190.032 225.009 202.284 219.795 200.448 218.277V218.288Z" fill="#10132C"/>
</g>
</g>
<path d="M182.5 195.502C185.677 198.186 185.277 205.165 188.738 210.026C189.973 212.521 192.163 214.169 194.316 215.358C187.031 215.028 180.605 211.486 176.403 206.083C175.226 198.68 180.087 193.066 182.511 195.502H182.5Z" fill="white"/>
<path d="M141.093 127.686C141.093 138.843 150.144 147.894 161.302 147.894C168.269 147.894 174.413 144.375 178.05 139.008C175.837 129.887 169.258 111.656 153.075 119.694C148.614 121.907 144.965 123.249 141.564 123.413C141.258 124.79 141.105 126.226 141.105 127.698L141.093 127.686Z" fill="#C591E7"/>
<path d="M144.212 126.838C144.212 137.054 152.498 145.34 162.714 145.34C169.093 145.34 174.719 142.115 178.05 137.207C176.025 128.851 169.999 112.162 155.181 119.518C151.097 121.542 147.755 122.778 144.636 122.919C144.353 124.178 144.212 125.497 144.212 126.838Z" fill="white"/>
<path d="M163.078 140.75C156.481 140.75 151.132 135.001 151.132 127.909C151.132 120.818 156.481 115.069 163.078 115.069C169.676 115.069 175.024 120.818 175.024 127.909C175.024 135.001 169.676 140.75 163.078 140.75Z" fill="#909AF2"/>
<path d="M163.078 137.16C158.32 137.16 154.463 133.019 154.463 127.909C154.463 122.8 158.32 118.658 163.078 118.658C167.836 118.658 171.693 122.8 171.693 127.909C171.693 133.019 167.836 137.16 163.078 137.16Z" fill="#10132C"/>
<path d="M155.746 130.522C154.302 130.522 153.133 129.352 153.133 127.909C153.133 126.466 154.302 125.297 155.746 125.297C157.189 125.297 158.358 126.466 158.358 127.909C158.358 129.352 157.189 130.522 155.746 130.522Z" fill="white"/>
<path d="M115.66 110.361C111.317 97.32 112.188 82.5962 124.252 66.6013C130.36 58.8804 138.258 52.7838 147.261 48.8174C147.909 48.5467 148.615 48.4761 149.297 48.6056C149.98 48.735 150.616 49.0646 151.11 49.5589C151.604 50.0532 151.946 50.677 152.087 51.3596C152.228 52.0423 152.169 52.7485 151.899 53.3958C144.825 69.7791 142.2 80.6189 150.675 97.3083L115.66 110.373V110.361Z" fill="#E3CDF7"/>
<g style="mix-blend-mode:multiply" opacity="0.1">
<path d="M143.213 56.5384C144.801 55.4673 146.814 57.068 146.12 58.857C142.247 68.7435 140.576 76.8645 142.883 86.2802C143.319 88.0456 141.941 89.7287 140.129 89.6816C136.963 89.5875 132.337 89.6345 128.242 90.4349C124.581 91.141 121.533 87.6219 122.663 84.0675C125.146 76.3349 130.749 64.9419 143.213 56.5501V56.5384Z" fill="#3F4AAF"/>
</g>
<path d="M185.701 85.9389L185.854 88.6106C185.854 88.693 185.925 88.7989 186.054 88.846C186.183 88.893 186.301 88.846 186.348 88.7989L188.561 86.3508C189.455 85.3621 190.75 84.7619 192.151 84.656L194.587 84.4794C194.705 84.4794 194.764 84.4088 194.787 84.35C194.811 84.2911 194.787 84.2087 194.716 84.1263H194.705L192.927 82.4668C191.892 81.5017 191.268 80.2188 191.197 78.8889L191.162 78.2768L191.009 75.6287C190.985 75.5463 190.915 75.4521 190.797 75.405C190.679 75.358 190.562 75.3933 190.491 75.4404L188.302 77.8649C187.466 78.7947 186.278 79.3832 184.971 79.5362L184.701 79.5597L182.523 79.7127L182.252 79.7363C182.135 79.7363 182.076 79.8069 182.052 79.854C182.029 79.901 182.052 79.9952 182.135 80.0776L183.924 81.7489C184.959 82.714 185.583 83.9969 185.654 85.3268L185.689 85.9389H185.701Z" fill="white"/>
<path d="M252.364 69.4497L254.188 70.2736C254.188 70.2736 254.329 70.2853 254.412 70.2147C254.494 70.1441 254.506 70.0617 254.482 70.0029L253.612 67.6842C253.258 66.7427 253.305 65.6834 253.717 64.7065L254.435 63.0235C254.471 62.9411 254.447 62.8822 254.412 62.8469C254.377 62.8116 254.318 62.7881 254.235 62.8234H254.224L252.517 63.4354C251.517 63.7885 250.457 63.765 249.539 63.353L249.116 63.1647L247.303 62.3526C247.244 62.3408 247.15 62.3526 247.079 62.4232C247.009 62.4938 246.985 62.5762 246.997 62.6351L247.856 64.9302C248.186 65.8129 248.162 66.7898 247.821 67.7196L247.738 67.9079L247.091 69.4026L247.009 69.5909C246.973 69.6733 246.997 69.7322 247.021 69.7675C247.044 69.8028 247.115 69.8263 247.197 69.791L248.915 69.1672C249.916 68.8141 250.975 68.8377 251.881 69.2496L252.305 69.4379L252.364 69.4497Z" fill="white"/>
<path d="M151.499 44.8864L151.429 46.181C151.429 46.181 151.452 46.2752 151.511 46.2987C151.57 46.3223 151.629 46.3105 151.652 46.2987L152.841 45.2395C153.323 44.8158 153.971 44.5921 154.653 44.6157L155.83 44.6628C155.83 44.6628 155.925 44.6392 155.936 44.6157C155.948 44.5921 155.948 44.5451 155.913 44.498L155.148 43.6035C154.712 43.0856 154.477 42.4383 154.512 41.791V41.4967H154.524L154.595 40.2138C154.595 40.2138 154.559 40.1197 154.5 40.0961C154.442 40.0726 154.383 40.0726 154.347 40.0961L153.17 41.1436C152.723 41.5438 152.123 41.7557 151.487 41.7674H151.358L150.31 41.7204H150.181C150.181 41.7204 150.087 41.7439 150.075 41.7674C150.063 41.791 150.063 41.8381 150.099 41.8734L150.864 42.7679C151.299 43.2857 151.534 43.933 151.499 44.5686V44.8628V44.8864Z" fill="white"/>
<path d="M267.642 102.699L268.642 103.511C268.642 103.511 268.725 103.546 268.795 103.511C268.866 103.476 268.878 103.429 268.878 103.393L268.713 101.804C268.654 101.169 268.854 100.51 269.266 99.9682L269.996 99.0384C269.996 99.0384 270.031 98.9561 270.008 98.9208C269.984 98.8854 269.96 98.8737 269.902 98.8737L268.736 98.9796C268.054 99.0384 267.395 98.8501 266.9 98.4382L266.665 98.2499L265.665 97.4495C265.665 97.4495 265.57 97.426 265.512 97.4495C265.453 97.4731 265.429 97.5319 265.429 97.5672L265.594 99.1326C265.653 99.7329 265.476 100.345 265.111 100.863L265.029 100.969L264.382 101.793L264.299 101.898C264.299 101.898 264.264 101.981 264.276 102.004C264.287 102.028 264.323 102.051 264.382 102.051L265.559 101.946C266.241 101.887 266.9 102.075 267.395 102.487L267.63 102.675L267.642 102.699Z" fill="white"/>
<path d="M-5.39039 300.193L-4.62537 302.053C-4.62537 302.053 -4.53123 302.17 -4.42531 302.17C-4.31938 302.17 -4.24875 302.112 -4.22521 302.064L-3.26011 299.793C-2.87171 298.875 -2.10667 298.133 -1.12979 297.71L0.553257 296.992C0.635645 296.956 0.65918 296.898 0.65918 296.851C0.65918 296.803 0.635645 296.745 0.553257 296.709H0.541494L-1.11803 295.968C-2.08314 295.532 -2.83639 294.791 -3.21302 293.861L-3.38957 293.437L-4.14283 291.601C-4.14283 291.601 -4.24877 291.495 -4.35469 291.495C-4.46062 291.495 -4.53123 291.542 -4.56654 291.59L-5.51987 293.838C-5.88473 294.697 -6.57913 295.403 -7.46185 295.838L-7.65017 295.921L-9.1449 296.556L-9.33322 296.639C-9.41561 296.674 -9.43916 296.733 -9.45092 296.78C-9.46269 296.827 -9.42739 296.886 -9.345 296.921L-7.6737 297.663C-6.70859 298.098 -5.95534 298.84 -5.57871 299.769L-5.40217 300.193H-5.39039Z" fill="white"/>
<path d="M219.904 100.474C219.059 100.474 218.373 99.7894 218.373 98.9444C218.373 98.0993 219.059 97.4143 219.904 97.4143C220.749 97.4143 221.434 98.0993 221.434 98.9444C221.434 99.7894 220.749 100.474 219.904 100.474Z" fill="white"/>
<path d="M168.529 89.4815C167.684 89.4815 166.998 88.7965 166.998 87.9514C166.998 87.1064 167.684 86.4214 168.529 86.4214C169.374 86.4214 170.059 87.1064 170.059 87.9514C170.059 88.7965 169.374 89.4815 168.529 89.4815Z" fill="white"/>
<path d="M184.889 36.9655C184.044 36.9655 183.359 36.2805 183.359 35.4354C183.359 34.5904 184.044 33.9054 184.889 33.9054C185.734 33.9054 186.419 34.5904 186.419 35.4354C186.419 36.2805 185.734 36.9655 184.889 36.9655Z" fill="white"/>
<path d="M107.397 162.959L109.221 163.783C109.221 163.783 109.363 163.795 109.445 163.724C109.527 163.654 109.539 163.571 109.516 163.512L108.645 161.194C108.292 160.252 108.339 159.193 108.751 158.216L109.469 156.533C109.504 156.451 109.48 156.392 109.445 156.356C109.41 156.321 109.351 156.298 109.268 156.333H109.257L107.55 156.945C106.55 157.298 105.49 157.274 104.572 156.863L104.149 156.674L102.336 155.862C102.277 155.85 102.183 155.862 102.113 155.933C102.042 156.003 102.018 156.086 102.03 156.145L102.889 158.44C103.219 159.322 103.195 160.299 102.854 161.229L102.772 161.417L102.124 162.912L102.042 163.1C102.007 163.183 102.03 163.242 102.054 163.277C102.077 163.312 102.148 163.336 102.23 163.301L103.949 162.677C104.949 162.324 106.008 162.347 106.915 162.759L107.338 162.947L107.397 162.959Z" fill="white"/>
<path d="M57.377 156.58L57.9537 158.499C57.9537 158.499 58.0361 158.616 58.142 158.628C58.2479 158.64 58.3186 158.593 58.3539 158.546L59.5308 156.368C60.0134 155.486 60.8373 154.827 61.8377 154.497L63.5796 153.944C63.662 153.92 63.6973 153.861 63.6973 153.814C63.6973 153.767 63.6737 153.708 63.6031 153.661H63.5913L62.0142 152.767C61.0962 152.249 60.4135 151.425 60.1193 150.472L59.9898 150.036L59.4131 148.13C59.4131 148.13 59.319 148.024 59.213 148.012C59.1071 148 59.0365 148.035 59.0012 148.094L57.836 150.248C57.3888 151.072 56.6355 151.708 55.7175 152.049L55.5292 152.119L53.9756 152.614L53.7755 152.673C53.6931 152.696 53.6578 152.755 53.646 152.802C53.6342 152.849 53.6696 152.908 53.7402 152.955L55.3408 153.85C56.2589 154.367 56.9415 155.191 57.2358 156.145L57.3652 156.58H57.377Z" fill="white"/>
<path d="M64.2858 234.012L64.4035 236.013C64.4035 236.072 64.4506 236.155 64.5565 236.19C64.6624 236.225 64.733 236.19 64.7801 236.155L66.4279 234.319C67.0987 233.577 68.0638 233.13 69.1113 233.047L70.9356 232.918C71.018 232.918 71.0651 232.859 71.0886 232.824C71.1122 232.788 71.0886 232.718 71.0298 232.659L69.6998 231.411C68.9348 230.693 68.464 229.728 68.4051 228.74L68.3816 228.281L68.2757 226.292C68.2639 226.233 68.2051 226.162 68.1109 226.127C68.0167 226.092 67.9344 226.115 67.8873 226.15L66.2513 227.963C65.6275 228.657 64.733 229.093 63.7679 229.21L63.5678 229.234L61.9436 229.352H61.7318C61.6376 229.375 61.5905 229.422 61.5788 229.458C61.567 229.493 61.5788 229.564 61.6376 229.622L62.9794 230.87C63.7444 231.588 64.2152 232.553 64.274 233.542L64.2976 234.001L64.2858 234.012Z" fill="white"/>
<path d="M87.7078 99.3445L89.0613 100.827C89.0613 100.827 89.1907 100.898 89.2849 100.863C89.379 100.827 89.4261 100.757 89.4379 100.698L89.5674 98.2264C89.6262 97.226 90.0852 96.2726 90.8503 95.5429L92.1802 94.2953C92.2391 94.2365 92.2508 94.1659 92.2391 94.1306C92.2273 94.0953 92.1802 94.0364 92.0861 94.0364H92.0743L90.2618 93.9187C89.2025 93.8481 88.2374 93.4008 87.5665 92.6594L87.2605 92.318L85.9188 90.8468C85.9188 90.8468 85.7775 90.788 85.6952 90.8233C85.6128 90.8586 85.5539 90.9292 85.5304 90.9881L85.4009 93.4362C85.3538 94.366 84.9419 95.2722 84.2593 95.9784L84.118 96.1196L82.9293 97.2377L82.7763 97.379C82.7057 97.4378 82.7057 97.5084 82.7174 97.5437C82.7292 97.5791 82.7763 97.6261 82.8704 97.6379L84.6947 97.7556C85.7422 97.8262 86.7191 98.2735 87.39 99.015L87.696 99.3563L87.7078 99.3445Z" fill="white"/>
<path d="M100.76 287.906L101.337 289.824C101.337 289.824 101.419 289.942 101.525 289.954C101.631 289.965 101.701 289.918 101.737 289.871L102.914 287.694C103.396 286.811 104.22 286.152 105.22 285.823L106.962 285.269C107.045 285.246 107.08 285.187 107.08 285.14C107.08 285.093 107.057 285.034 106.986 284.987H106.974L105.397 284.092C104.479 283.575 103.796 282.751 103.502 281.797L103.373 281.362L102.796 279.455C102.796 279.455 102.702 279.349 102.596 279.337C102.49 279.326 102.419 279.361 102.384 279.42L101.219 281.574C100.772 282.398 100.018 283.033 99.1003 283.374L98.912 283.445L97.3584 283.939L97.1583 283.998C97.0759 284.022 97.0406 284.081 97.0288 284.128C97.0171 284.175 97.0524 284.234 97.123 284.281L98.7237 285.175C99.6417 285.693 100.324 286.517 100.619 287.47L100.748 287.906H100.76Z" fill="white"/>
<path d="M66.3215 196.456C65.4765 196.456 64.7915 195.771 64.7915 194.926C64.7915 194.081 65.4765 193.396 66.3215 193.396C67.1665 193.396 67.8516 194.081 67.8516 194.926C67.8516 195.771 67.1665 196.456 66.3215 196.456Z" fill="white"/>
<path d="M87.2717 116.246C86.4267 116.246 85.7417 115.561 85.7417 114.716C85.7417 113.871 86.4267 113.186 87.2717 113.186C88.1167 113.186 88.8018 113.871 88.8018 114.716C88.8018 115.561 88.1167 116.246 87.2717 116.246Z" fill="white"/>
<path d="M57.1301 253.833C56.2851 253.833 55.6001 253.148 55.6001 252.303C55.6001 251.457 56.2851 250.772 57.1301 250.772C57.9751 250.772 58.6602 251.457 58.6602 252.303C58.6602 253.148 57.9751 253.833 57.1301 253.833Z" fill="white"/>
<path d="M37.3098 217.182C36.4648 217.182 35.7798 216.497 35.7798 215.652C35.7798 214.807 36.4648 214.122 37.3098 214.122C38.1548 214.122 38.8398 214.807 38.8398 215.652C38.8398 216.497 38.1548 217.182 37.3098 217.182Z" fill="white"/>
<path d="M96.8752 237.732C96.0302 237.732 95.3452 237.047 95.3452 236.202C95.3452 235.357 96.0302 234.672 96.8752 234.672C97.7202 234.672 98.4053 235.357 98.4053 236.202C98.4053 237.047 97.7202 237.732 96.8752 237.732Z" fill="white"/>
<path d="M93.7805 83.6556C92.9355 83.6556 92.2505 82.9705 92.2505 82.1255C92.2505 81.2805 92.9355 80.5955 93.7805 80.5955C94.6255 80.5955 95.3105 81.2805 95.3105 82.1255C95.3105 82.9705 94.6255 83.6556 93.7805 83.6556Z" fill="white"/>
<path d="M206.722 16.5098L207.722 17.3219C207.722 17.3219 207.805 17.3573 207.875 17.3219C207.946 17.2866 207.958 17.2396 207.958 17.2042L207.793 15.6153C207.734 14.9798 207.934 14.3207 208.346 13.7793L209.076 12.8495C209.076 12.8495 209.111 12.7671 209.088 12.7318C209.064 12.6965 209.041 12.6847 208.982 12.6847L207.816 12.7906C207.134 12.8495 206.475 12.6612 205.98 12.2492L205.745 12.0609L204.745 11.2606C204.745 11.2606 204.65 11.237 204.592 11.2606C204.533 11.2841 204.509 11.343 204.509 11.3783L204.674 12.9436C204.733 13.5439 204.556 14.1559 204.191 14.6738L204.109 14.7797L203.462 15.6036L203.379 15.7095C203.379 15.7095 203.344 15.7919 203.356 15.8154C203.368 15.839 203.403 15.8625 203.462 15.8625L204.639 15.7566C205.321 15.6977 205.98 15.886 206.475 16.298L206.71 16.4863L206.722 16.5098Z" fill="white"/>
<path d="M179.412 139.539C179.412 132.271 177.059 123.785 169.998 119.325C158.816 112.264 145.281 121.679 139.395 125.21" stroke="#10132C" stroke-width="4.11937" stroke-linecap="round"/>
<path d="M172.35 119.1L174.704 116.588" stroke="#10132C" stroke-width="4.11937" stroke-linecap="round"/>
<path d="M178.824 130.123L182.354 129.535" stroke="#10132C" stroke-width="4.11937" stroke-linecap="round"/>
<path d="M158.227 116.588L157.639 111.88" stroke="#10132C" stroke-width="4.11937" stroke-linecap="round"/>
<path d="M144.691 120.708L142.926 117.765" stroke="#10132C" stroke-width="4.11937" stroke-linecap="round"/>
<path d="M207.071 143.452C208.836 136.979 211.779 127.269 218.84 128.152C223.548 128.74 227.079 135.42 227.079 141.304" stroke="#10132C" stroke-width="3.53089" stroke-linecap="round"/>
<path d="M226.491 136.008L229.434 134.831" stroke="#10132C" stroke-width="3.53089" stroke-linecap="round"/>
<path d="M221.195 128.946L223.549 125.415" stroke="#10132C" stroke-width="3.53089" stroke-linecap="round"/>
<path d="M210.367 127.652C209.782 126.872 209.94 125.765 210.72 125.18C211.5 124.595 212.607 124.753 213.192 125.533L210.367 127.652ZM212.132 130.006L210.367 127.652L213.192 125.533L214.957 127.887L212.132 130.006Z" fill="#10132C"/>
<path d="M208.248 137.568L205.306 136.597" stroke="#10132C" stroke-width="3.53089" stroke-linecap="round"/>
</svg>
