<svg width="508" height="539" viewBox="0 0 508 539" fill="none" xmlns="http://www.w3.org/2000/svg">
<path d="M149 253.121L148.604 254.529C148.383 255.267 148.45 256.046 148.79 256.703L149.709 258.409C149.733 258.481 149.738 258.559 149.723 258.635C149.709 258.712 149.675 258.784 149.626 258.847C149.578 258.909 149.515 258.959 149.443 258.99C149.371 259.021 149.293 259.033 149.217 259.024L147.336 258.551C146.613 258.383 145.837 258.502 145.165 258.882L143.863 259.619C143.798 259.655 143.726 259.673 143.654 259.67C143.583 259.667 143.514 259.644 143.457 259.604C143.403 259.559 143.364 259.499 143.345 259.43C143.326 259.362 143.327 259.288 143.349 259.218L143.744 257.81C143.963 257.072 143.897 256.294 143.558 255.636L142.639 253.93C142.607 253.859 142.596 253.779 142.608 253.699C142.621 253.619 142.656 253.543 142.709 253.48C142.757 253.414 142.823 253.363 142.899 253.334C142.974 253.305 143.055 253.298 143.131 253.315L145.008 253.783C145.727 253.95 146.497 253.833 147.166 253.458L148.473 252.725C148.537 252.686 148.61 252.666 148.683 252.668C148.756 252.67 148.825 252.694 148.882 252.736C148.937 252.781 148.977 252.842 148.995 252.911C149.014 252.981 149.011 253.056 148.986 253.126L149 253.121Z" fill="#FDD466"/>
<path d="M472.019 266.779L434.663 250.36C434.25 250.178 433.799 250.097 433.348 250.122C432.897 250.148 432.459 250.28 432.068 250.508L415.995 259.878C415.709 260.045 415.49 260.306 415.375 260.616C415.259 260.926 415.255 261.267 415.363 261.58L430.951 306.897C431.016 307.084 431.118 307.255 431.252 307.4C431.386 307.545 431.548 307.661 431.728 307.74C431.909 307.82 432.104 307.861 432.301 307.861C432.499 307.862 432.694 307.821 432.875 307.743L476.802 288.588C477.106 288.456 477.354 288.222 477.505 287.927C477.656 287.631 477.7 287.293 477.629 286.969L473.664 268.791C473.568 268.349 473.369 267.937 473.083 267.587C472.797 267.238 472.432 266.961 472.019 266.779Z" fill="#909AF2"/>
<path d="M454.429 274.642L457.178 274.858L457.178 274.858C458.656 274.968 460.074 274.544 461.141 273.671L464.014 271.313L464.013 271.313C464.251 271.157 464.573 271.15 464.845 271.295C465.117 271.439 465.291 271.71 465.295 271.994L464.949 275.694L464.949 275.694C464.823 277.066 465.264 278.479 466.184 279.642L467.901 281.8L467.901 281.8C468.08 282.031 468.114 282.327 467.989 282.564C467.863 282.801 467.598 282.939 467.306 282.919L464.557 282.704C463.078 282.593 461.66 283.018 460.593 283.891L457.721 286.249L457.721 286.249C457.493 286.433 457.154 286.455 456.87 286.304C456.586 286.153 456.415 285.861 456.44 285.568L456.786 281.868L456.786 281.868C456.912 280.496 456.469 279.084 455.55 277.921L453.833 275.763C453.641 275.534 453.6 275.232 453.729 274.99C453.857 274.749 454.13 274.613 454.428 274.644L454.429 274.642Z" fill="white"/>
<path d="M104.784 255.551C103.653 253.693 101.256 253.058 99.3536 254.113V254.113C97.451 255.169 96.72 257.537 97.6972 259.481L125.271 314.329C126.941 317.651 131.039 318.916 134.291 317.113V317.113C137.542 315.31 138.64 311.163 136.707 307.987L104.784 255.551Z" fill="white"/>
<path fill-rule="evenodd" clip-rule="evenodd" d="M127.794 293.347L136.706 307.987C138.64 311.162 137.542 315.309 134.29 317.112C131.039 318.915 126.94 317.651 125.27 314.329L118.664 301.188C120.518 302.097 122.774 302.12 124.725 301.038C127.504 299.496 128.71 296.243 127.794 293.347Z" fill="#E9EAF0"/>
<path d="M89.3775 232.522C88.0511 231.603 86.2465 232.604 86.3237 234.216L86.8904 246.042C86.9211 246.682 86.6349 247.296 86.125 247.684L76.7044 254.855C75.4204 255.832 75.8145 257.858 77.3714 258.283L88.7935 261.398C89.4117 261.567 89.9074 262.029 90.119 262.634L94.028 273.809C94.5608 275.332 96.6089 275.583 97.4939 274.234L103.986 264.333C104.338 263.798 104.93 263.469 105.571 263.455L117.408 263.19C119.021 263.154 119.893 261.284 118.883 260.025L111.473 250.791C111.072 250.291 110.943 249.626 111.127 249.013L114.533 237.674C114.998 236.128 113.488 234.721 111.979 235.293L100.907 239.486C100.308 239.713 99.6354 239.631 99.1087 239.266L89.3775 232.522Z" fill="#FDD466"/>
<path d="M55.9087 222.362L56.9979 223.637C57.5606 224.318 58.3453 224.751 59.1887 224.845L61.3996 225.056C61.4831 225.08 61.5603 225.125 61.6239 225.188C61.6876 225.25 61.7358 225.328 61.764 225.415C61.7931 225.5 61.7999 225.592 61.7837 225.681C61.7675 225.769 61.7289 225.851 61.672 225.917L60.0231 227.408C59.4017 227.991 59.0196 228.806 58.9541 229.689L58.8261 231.399C58.8194 231.483 58.7903 231.563 58.7421 231.63C58.6939 231.697 58.6285 231.747 58.5535 231.776C58.4765 231.799 58.3942 231.798 58.3166 231.772C58.2391 231.747 58.1696 231.698 58.1167 231.633L57.0276 230.359C56.4636 229.68 55.6796 229.247 54.8367 229.15L52.6259 228.939C52.5372 228.925 52.4537 228.883 52.3854 228.821C52.3171 228.758 52.267 228.676 52.241 228.586C52.2091 228.498 52.2028 228.402 52.2229 228.312C52.2429 228.221 52.2884 228.14 52.3535 228.078L53.9956 226.589C54.6122 226.009 54.9927 225.201 55.061 224.324L55.1959 222.612C55.1995 222.526 55.2271 222.444 55.2753 222.376C55.3235 222.308 55.3901 222.256 55.4668 222.228C55.5446 222.205 55.628 222.207 55.7061 222.233C55.7843 222.26 55.8536 222.311 55.9053 222.378L55.9087 222.362Z" fill="#FDD466"/>
<path d="M135.909 208.362L136.998 209.637C137.561 210.318 138.345 210.751 139.189 210.845L141.4 211.056C141.483 211.08 141.56 211.125 141.624 211.188C141.688 211.25 141.736 211.328 141.764 211.415C141.793 211.5 141.8 211.592 141.784 211.681C141.768 211.769 141.729 211.851 141.672 211.917L140.023 213.408C139.402 213.991 139.02 214.806 138.954 215.689L138.826 217.399C138.819 217.483 138.79 217.563 138.742 217.63C138.694 217.697 138.629 217.747 138.553 217.776C138.476 217.799 138.394 217.798 138.317 217.772C138.239 217.747 138.17 217.698 138.117 217.633L137.028 216.359C136.464 215.68 135.68 215.247 134.837 215.15L132.626 214.939C132.537 214.925 132.454 214.883 132.385 214.821C132.317 214.758 132.267 214.676 132.241 214.586C132.209 214.498 132.203 214.402 132.223 214.312C132.243 214.221 132.288 214.14 132.353 214.078L133.996 212.589C134.612 212.009 134.993 211.201 135.061 210.324L135.196 208.612C135.199 208.526 135.227 208.444 135.275 208.376C135.323 208.308 135.39 208.256 135.467 208.228C135.545 208.205 135.628 208.207 135.706 208.233C135.784 208.26 135.854 208.311 135.905 208.378L135.909 208.362Z" fill="#FDD466"/>
<path d="M296.468 46.8468C308.465 42.8061 323.394 48.1391 324.635 62.3738C325.706 74.6646 328.253 79.9363 333.007 82.3729C341.395 86.6723 354.054 83.1881 356.698 82.1811C367.243 78.1588 379.05 83.4462 383.072 93.9913C387.095 104.533 381.807 116.343 371.262 120.365C368.234 121.519 340.949 131.302 315.573 119.337C305.298 114.493 288.017 104.126 282.632 87.0559C276.877 68.8164 284.232 50.9714 296.464 46.854L296.468 46.8468Z" fill="#95DCBC"/>
<path d="M317.116 63.3751C316.964 66.1779 319.114 68.5725 321.917 68.7237C324.72 68.8749 327.114 66.7253 327.265 63.9225C327.417 61.1198 325.267 58.7251 322.464 58.5739C319.661 58.4228 317.267 60.5723 317.116 63.3751Z" fill="#95DCBC"/>
<path d="M338.865 123.466C338.714 126.269 340.864 128.663 343.666 128.815C346.469 128.966 348.864 126.816 349.015 124.013C349.166 121.211 347.017 118.816 344.214 118.665C341.411 118.514 339.016 120.663 338.865 123.466Z" fill="#95DCBC"/>
<path d="M351.258 83.4357C351.134 85.7386 352.9 87.7062 355.203 87.8304C357.506 87.9546 359.474 86.1884 359.598 83.8855C359.722 81.5827 357.956 79.6151 355.653 79.4909C353.35 79.3667 351.383 81.1329 351.258 83.4357Z" fill="#95DCBC"/>
<path d="M287.544 100.577C287.419 102.88 289.186 104.848 291.488 104.972C293.791 105.096 295.759 103.33 295.883 101.027C296.007 98.7243 294.241 96.7567 291.938 96.6325C289.635 96.5083 287.668 98.2745 287.544 100.577Z" fill="#95DCBC"/>
<path d="M278.536 70.5646C278.412 72.8675 280.178 74.8351 282.481 74.9593C284.784 75.0835 286.752 73.3173 286.876 71.0144C287 68.7116 285.234 66.744 282.931 66.6198C280.628 66.4956 278.661 68.2618 278.536 70.5646Z" fill="#95DCBC"/>
<path d="M370.823 87.9468C370.65 91.1573 373.112 93.9003 376.323 94.0735C379.533 94.2466 382.276 91.7844 382.45 88.5739C382.623 85.3634 380.161 82.6204 376.95 82.4472C373.74 82.274 370.997 84.7363 370.823 87.9468Z" fill="#95DCBC"/>
<path d="M302.162 112.491C301.989 115.701 304.451 118.444 307.662 118.617C310.872 118.791 313.615 116.328 313.788 113.118C313.961 109.907 311.499 107.164 308.289 106.991C305.078 106.818 302.335 109.28 302.162 112.491Z" fill="#95DCBC"/>
<g style="mix-blend-mode:multiply" opacity="0.1">
<path d="M303.139 61.8814C302.966 65.0919 305.428 67.8349 308.639 68.008C311.849 68.1812 314.592 65.7189 314.766 62.5084C314.939 59.2979 312.476 56.5549 309.266 56.3818C306.055 56.2086 303.312 58.6709 303.139 61.8814Z" fill="#3F4AAF"/>
</g>
<g style="mix-blend-mode:multiply" opacity="0.1">
<path d="M304.072 86.5206C303.993 87.9855 305.117 89.2371 306.582 89.3161C308.047 89.3951 309.298 88.2716 309.377 86.8067C309.456 85.3418 308.333 84.0902 306.868 84.0112C305.403 83.9322 304.151 85.0557 304.072 86.5206Z" fill="#3F4AAF"/>
</g>
<g style="mix-blend-mode:multiply" opacity="0.1">
<path d="M362.944 97.0471C362.835 99.0816 364.395 100.82 366.429 100.93C368.464 101.039 370.202 99.479 370.312 97.4445C370.422 95.41 368.861 93.6718 366.827 93.5621C364.792 93.4523 363.054 95.0126 362.944 97.0471Z" fill="#3F4AAF"/>
</g>
<g style="mix-blend-mode:multiply" opacity="0.1">
<path d="M339.997 95.2178C339.829 98.3361 342.22 101 345.339 101.169C348.457 101.337 351.121 98.9452 351.289 95.8269C351.458 92.7086 349.066 90.0443 345.948 89.8761C342.83 89.7079 340.165 92.0995 339.997 95.2178Z" fill="#3F4AAF"/>
</g>
<g style="mix-blend-mode:multiply" opacity="0.1">
<path d="M321.543 92.2095C321.434 94.2194 322.976 95.9367 324.986 96.0451C326.995 96.1535 328.713 94.612 328.821 92.6021C328.929 90.5922 327.388 88.875 325.378 88.7666C323.368 88.6582 321.651 90.1997 321.543 92.2095Z" fill="#3F4AAF"/>
</g>
<g style="mix-blend-mode:multiply" opacity="0.1">
<path d="M343.666 128.811C346.118 128.943 348.26 127.314 348.856 125.024C360.721 124.195 369.611 120.991 371.267 120.359C378.553 117.582 383.323 111.086 384.252 103.859C382.321 105.734 379.984 107.26 377.306 108.28C374.278 109.434 346.993 119.217 321.617 107.252C311.342 102.408 294.061 92.0407 288.675 74.9708C286.219 67.1889 286.159 59.4805 287.836 52.8777C284.727 56.5087 282.457 61.342 281.368 66.8343C279.799 67.3672 278.631 68.8073 278.537 70.562C278.448 72.198 279.315 73.6585 280.647 74.4149C280.654 78.4856 281.28 82.7533 282.633 87.0453C283.939 91.1823 285.944 94.9179 288.378 98.286C287.893 98.9258 287.59 99.7131 287.544 100.574C287.419 102.878 289.185 104.844 291.489 104.968C292.282 105.011 293.033 104.825 293.688 104.473C296.403 107.179 299.34 109.563 302.275 111.637C302.22 111.913 302.175 112.197 302.159 112.486C301.986 115.695 304.45 118.44 307.659 118.613C309.146 118.693 310.527 118.202 311.604 117.341C313.007 118.083 314.341 118.747 315.574 119.33C323.477 123.057 331.563 124.672 339.045 125.098C339.615 127.142 341.429 128.687 343.663 128.807L343.666 128.811Z" fill="#3F4AAF"/>
</g>
<path d="M307.129 99.1074C306.961 102.226 309.353 104.89 312.471 105.058C315.589 105.226 318.253 102.835 318.422 99.7165C318.59 96.5982 316.198 93.934 313.08 93.7658C309.962 93.5976 307.297 95.9891 307.129 99.1074Z" fill="#95DCBC"/>
<path d="M286.586 76.4543C286.47 78.6096 288.123 80.4512 290.278 80.5674C292.433 80.6837 294.275 79.0306 294.391 76.8753C294.507 74.7199 292.854 72.8784 290.699 72.7622C288.544 72.6459 286.702 74.2989 286.586 76.4543Z" fill="#95DCBC"/>
<path d="M350.471 111.023C350.354 113.178 352.007 115.02 354.163 115.136C356.318 115.252 358.16 113.599 358.276 111.444C358.392 109.288 356.739 107.447 354.584 107.331C352.428 107.214 350.587 108.867 350.471 111.023Z" fill="#95DCBC"/>
<path d="M329.741 117.884C329.656 119.47 330.872 120.825 332.458 120.91C334.044 120.996 335.399 119.779 335.484 118.194C335.57 116.608 334.353 115.253 332.768 115.167C331.182 115.082 329.827 116.298 329.741 117.884Z" fill="#95DCBC"/>
<path d="M290.578 94.1895C290.492 95.7753 291.708 97.1302 293.294 97.2157C294.88 97.3012 296.235 96.085 296.32 94.4992C296.406 92.9135 295.19 91.5586 293.604 91.4731C292.018 91.3875 290.663 92.6037 290.578 94.1895Z" fill="#95DCBC"/>
<path d="M380.367 98.1759C380.367 98.1759 397.813 70.6937 406.368 80.6759C414.922 90.6581 386.367 95.1758 397.66 82.4161C416.076 63.3112 395.357 68.8943 395.357 68.8943" stroke="#95DCBC" stroke-width="3.23" stroke-linecap="round" stroke-linejoin="round"/>
<g clip-path="url(#clip0_262_1100)">
<path d="M323.747 82.1405C324.389 83.7906 324.822 85.5142 325.037 87.2714C331.365 88.5214 337.175 91.6351 341.719 96.2123C346.264 100.79 349.336 106.621 350.541 112.958C353.12 112.381 355.804 112.475 358.336 113.231C360.868 113.987 363.164 115.38 365.004 117.277C366.844 119.174 368.167 121.511 368.846 124.065C369.525 126.618 369.538 129.304 368.883 131.864C368.228 134.424 366.927 136.774 365.105 138.688C363.283 140.602 361 142.016 358.475 142.796C355.95 143.577 353.268 143.696 350.683 143.143C348.099 142.59 345.7 141.384 343.715 139.64C338.751 145.679 331.768 149.716 324.058 151.005C316.348 152.294 308.431 150.748 301.773 146.651C295.115 142.555 290.165 136.187 287.839 128.723C285.513 121.26 285.968 113.207 289.12 106.053C286.757 103.864 284.915 101.172 283.731 98.1754C282.547 95.1792 282.051 91.9554 282.279 88.7418C282.507 85.5282 283.454 82.4068 285.049 79.6079C286.645 76.8091 288.848 74.4042 291.497 72.5707C294.146 70.7371 297.173 69.5218 300.355 69.0143C303.536 68.5068 306.791 68.7201 309.879 69.6384C312.967 70.5568 315.81 72.1567 318.197 74.3203C320.584 76.4839 322.455 79.1558 323.671 82.1389L323.747 82.1405Z" fill="white"/>
<path opacity="0.1" d="M324.977 70.1215C326.123 69.659 327.366 69.4849 328.596 69.6144C329.826 69.7439 331.005 70.1732 332.03 70.8645C333.056 71.5558 333.896 72.4881 334.477 73.5796C335.058 74.6711 335.363 75.8885 335.364 77.1251C339.881 78.9557 343.62 82.3002 345.942 86.5855C348.263 90.8709 349.022 95.8302 348.087 100.613C347.153 105.397 344.584 109.706 340.821 112.803C337.058 115.9 332.334 117.591 327.461 117.588C322.587 117.584 317.866 115.885 314.108 112.783C310.349 109.68 307.787 105.367 306.86 100.582C305.933 95.7974 306.699 90.8393 309.027 86.5575C311.355 82.2757 315.099 78.9368 319.619 77.1131C319.823 77.0306 320.027 76.948 320.221 76.8692C320.276 75.4049 320.754 73.9879 321.598 72.7901C322.442 71.5924 323.616 70.6653 324.977 70.1215V70.1215Z" fill="#232A6B"/>
<path d="M326.917 66.0131C328.063 65.5506 329.306 65.3765 330.536 65.506C331.766 65.6356 332.945 66.0648 333.97 66.7561C334.996 67.4474 335.836 68.3797 336.417 69.4712C336.998 70.5627 337.303 71.7802 337.304 73.0168C341.821 74.8473 345.56 78.1918 347.882 82.4771C350.203 86.7625 350.961 91.7218 350.027 96.505C349.093 101.288 346.524 105.598 342.761 108.695C338.997 111.791 334.274 113.483 329.401 113.479C324.527 113.476 319.806 111.777 316.048 108.674C312.289 105.572 309.727 101.258 308.8 96.4737C307.873 91.689 308.639 86.7309 310.967 82.4491C313.295 78.1673 317.039 74.8284 321.559 73.0048C321.763 72.9222 321.957 72.8434 322.161 72.7608C322.216 71.2965 322.694 69.8795 323.538 68.6818C324.382 67.484 325.556 66.5569 326.917 66.0131Z" fill="white"/>
<path d="M310.858 127.234L311.434 129.482C311.712 130.647 312.431 131.659 313.44 132.306L316.091 133.951C316.188 134.027 316.263 134.126 316.309 134.24C316.356 134.354 316.371 134.478 316.354 134.6C316.337 134.722 316.287 134.836 316.21 134.932C316.133 135.028 316.031 135.101 315.916 135.144L312.879 135.877C311.72 136.175 310.719 136.905 310.08 137.917L308.831 139.868C308.766 139.963 308.674 140.037 308.566 140.08C308.459 140.124 308.342 140.135 308.229 140.112C308.116 140.091 308.012 140.037 307.929 139.957C307.847 139.877 307.79 139.775 307.766 139.663L307.194 137.424C306.91 136.258 306.191 135.245 305.184 134.591L302.537 132.955C302.433 132.881 302.352 132.779 302.304 132.661C302.256 132.542 302.243 132.413 302.266 132.287C302.286 132.162 302.34 132.044 302.423 131.947C302.506 131.851 302.614 131.779 302.736 131.741L305.767 131.021C306.929 130.723 307.934 129.992 308.576 128.978L309.825 127.027C309.879 126.922 309.965 126.837 310.07 126.784C310.175 126.731 310.294 126.713 310.41 126.731C310.527 126.75 310.634 126.805 310.717 126.888C310.801 126.971 310.856 127.079 310.874 127.195L310.858 127.234Z" fill="#FDD466"/>
<path d="M266.421 125.612C264.968 122.024 266.7 117.937 270.288 116.484C273.877 115.031 277.964 116.762 279.417 120.351C280.87 123.94 279.138 128.026 275.55 129.479C271.961 130.932 267.874 129.201 266.421 125.612Z" fill="white"/>
<path d="M328.372 80.5347L330.551 81.3047C331.677 81.7217 332.921 81.6877 334.023 81.2099L336.865 79.9217C336.979 79.8805 337.103 79.8719 337.222 79.8967C337.342 79.9215 337.452 79.9788 337.54 80.0623C337.632 80.1428 337.701 80.2461 337.739 80.3618C337.778 80.4776 337.786 80.6015 337.761 80.721L336.671 83.6505C336.273 84.7792 336.322 86.0177 336.809 87.1111L337.736 89.2344C337.775 89.3424 337.783 89.459 337.76 89.5714C337.737 89.6837 337.683 89.7874 337.604 89.8708C337.522 89.9509 337.42 90.0061 337.308 90.0299C337.196 90.0537 337.08 90.0451 336.973 90.0052L334.785 89.2332C333.66 88.8256 332.422 88.8602 331.322 89.33L328.48 90.6182C328.365 90.652 328.243 90.6548 328.126 90.6262C328.01 90.5976 327.903 90.5386 327.816 90.4552C327.73 90.3719 327.667 90.2672 327.634 90.1517C327.602 90.0362 327.6 89.9141 327.63 89.7977L328.707 86.876C329.111 85.7448 329.062 84.5016 328.571 83.4055L327.644 81.2822C327.592 81.1785 327.572 81.0614 327.587 80.9461C327.601 80.8308 327.651 80.7226 327.728 80.6356C327.811 80.5513 327.917 80.4938 328.033 80.4705C328.149 80.4473 328.269 80.4594 328.378 80.5053L328.372 80.5347Z" fill="#909AF2"/>
</g>
<path d="M375.703 159.969L377.473 161.41C378.392 162.184 379.574 162.575 380.774 162.501L383.911 162.255C384.033 162.267 384.149 162.309 384.25 162.377C384.352 162.445 384.434 162.538 384.49 162.647C384.547 162.754 384.575 162.876 384.569 162.997C384.563 163.119 384.525 163.237 384.458 163.339L382.434 165.723C381.676 166.648 381.297 167.828 381.375 169.022L381.524 171.335C381.531 171.449 381.505 171.563 381.45 171.663C381.396 171.763 381.314 171.846 381.214 171.902C381.111 171.952 380.995 171.97 380.882 171.954C380.768 171.939 380.662 171.891 380.575 171.816L378.805 170.375C377.885 169.603 376.703 169.212 375.504 169.284L372.367 169.529C372.24 169.531 372.115 169.496 372.007 169.429C371.9 169.361 371.814 169.264 371.76 169.149C371.698 169.039 371.671 168.913 371.682 168.788C371.693 168.662 371.741 168.543 371.82 168.445L373.834 166.065C374.587 165.145 374.965 163.975 374.892 162.789L374.752 160.472C374.741 160.356 374.764 160.24 374.818 160.137C374.873 160.035 374.956 159.951 375.058 159.895C375.163 159.845 375.28 159.827 375.394 159.844C375.509 159.862 375.616 159.912 375.701 159.991L375.703 159.969Z" fill="#FDD466"/>
<path d="M219.463 72.5475L220.035 74.7865C220.315 75.9545 221.035 76.9693 222.045 77.6193L224.696 79.2645C224.794 79.3369 224.87 79.4349 224.916 79.5478C224.961 79.6607 224.975 79.784 224.955 79.9041C224.939 80.0251 224.891 80.1397 224.817 80.2363C224.742 80.3328 224.643 80.4079 224.53 80.4537L221.49 81.1777C220.33 81.4746 219.328 82.2044 218.69 83.2172L217.441 85.1686C217.373 85.261 217.281 85.3327 217.175 85.3758C217.068 85.4189 216.952 85.4316 216.839 85.4125C216.727 85.3894 216.624 85.3348 216.542 85.2552C216.46 85.1756 216.403 85.0743 216.377 84.9632L215.801 82.7149C215.514 81.5536 214.797 80.5444 213.794 79.8915L211.143 78.2462C211.051 78.1693 210.981 78.0694 210.94 77.9565C210.899 77.8437 210.888 77.722 210.909 77.6039C210.931 77.4857 210.983 77.3752 211.06 77.2837C211.138 77.1922 211.239 77.1229 211.352 77.0829L214.379 76.3534C215.544 76.0596 216.55 75.3276 217.188 74.3101L218.437 72.3587C218.494 72.2574 218.58 72.1756 218.684 72.1238C218.788 72.072 218.905 72.0528 219.021 72.0685C219.137 72.0904 219.244 72.1467 219.328 72.2301C219.411 72.3135 219.468 72.4202 219.491 72.5363L219.463 72.5475Z" fill="#909AF2"/>
<path d="M493.229 337.125L495.354 336.293C496.481 335.874 497.403 335.037 497.928 333.956L499.259 331.105C499.329 331.005 499.423 330.924 499.532 330.869C499.641 330.815 499.762 330.788 499.884 330.793C500.006 330.796 500.125 330.832 500.229 330.897C500.332 330.962 500.416 331.054 500.472 331.162L501.551 334.097C501.983 335.212 502.823 336.122 503.901 336.642L505.988 337.651C506.091 337.701 506.177 337.779 506.237 337.876C506.298 337.974 506.33 338.086 506.33 338.2C506.322 338.314 506.28 338.424 506.211 338.515C506.142 338.606 506.048 338.675 505.94 338.714L503.814 339.546C502.689 339.967 501.768 340.803 501.24 341.882L499.91 344.734C499.849 344.845 499.757 344.937 499.645 344.997C499.534 345.058 499.407 345.085 499.28 345.075C499.154 345.074 499.031 345.036 498.927 344.965C498.823 344.894 498.743 344.793 498.697 344.676L497.616 341.752C497.186 340.644 496.353 339.739 495.285 339.218L493.199 338.2C493.093 338.153 493.003 338.076 492.94 337.978C492.878 337.88 492.845 337.766 492.847 337.65C492.855 337.534 492.897 337.423 492.969 337.332C493.04 337.241 493.137 337.173 493.247 337.137L493.229 337.125Z" fill="#909AF2"/>
<path d="M454.229 201.124L456.354 200.292C457.481 199.873 458.403 199.036 458.928 197.955L460.259 195.104C460.329 195.004 460.423 194.923 460.532 194.868C460.641 194.814 460.762 194.788 460.884 194.792C461.006 194.795 461.125 194.831 461.229 194.896C461.332 194.961 461.416 195.053 461.472 195.161L462.551 198.096C462.983 199.211 463.823 200.121 464.901 200.641L466.988 201.65C467.091 201.7 467.177 201.778 467.237 201.875C467.298 201.973 467.33 202.085 467.33 202.199C467.322 202.313 467.28 202.423 467.211 202.514C467.142 202.605 467.048 202.674 466.94 202.713L464.814 203.545C463.689 203.966 462.768 204.802 462.24 205.881L460.91 208.733C460.849 208.844 460.757 208.936 460.645 208.996C460.534 209.057 460.407 209.084 460.28 209.074C460.154 209.073 460.031 209.035 459.927 208.964C459.823 208.893 459.743 208.792 459.697 208.675L458.616 205.751C458.186 204.643 457.353 203.738 456.285 203.217L454.199 202.199C454.093 202.152 454.003 202.075 453.94 201.977C453.878 201.879 453.845 201.765 453.847 201.649C453.855 201.533 453.897 201.422 453.969 201.331C454.04 201.24 454.137 201.172 454.247 201.136L454.229 201.124Z" fill="#909AF2"/>
<path d="M95.3106 308.274L94.2098 309.236C93.6212 309.734 93.2513 310.422 93.1768 311.159L93.0142 313.089C92.9944 313.163 92.9558 313.23 92.9018 313.286C92.8479 313.342 92.7803 313.385 92.7053 313.411C92.6306 313.437 92.5504 313.444 92.4732 313.431C92.3959 313.417 92.3243 313.384 92.266 313.335L90.9492 311.912C90.4352 311.375 89.7204 311.05 88.9497 311.001L87.4567 310.906C87.3831 310.901 87.313 310.877 87.2545 310.835C87.1959 310.794 87.1513 310.737 87.1256 310.672C87.1047 310.605 87.1049 310.533 87.1263 310.466C87.1477 310.398 87.1892 310.337 87.2459 310.29L88.3466 309.327C88.9336 308.829 89.3033 308.141 89.3796 307.405L89.5423 305.474C89.5541 305.397 89.5891 305.324 89.6431 305.263C89.6971 305.203 89.7678 305.159 89.8468 305.135C89.9233 305.106 90.0064 305.1 90.0855 305.117C90.1646 305.133 90.236 305.172 90.2905 305.228L91.6058 306.646C92.1169 307.178 92.826 307.502 93.5913 307.553L95.0857 307.654C95.1607 307.657 95.2327 307.68 95.2928 307.721C95.3528 307.763 95.3981 307.82 95.4231 307.887C95.4445 307.955 95.4439 308.027 95.4213 308.096C95.3987 308.164 95.3553 308.225 95.2965 308.271L95.3106 308.274Z" fill="#FDD466"/>
<path d="M235.984 160.639C232.379 150.206 220.742 142.744 210.257 149.473C201.203 155.284 196.207 156.336 191.992 154.354C184.555 150.855 180.213 140.262 179.499 137.9C176.656 128.479 166.714 123.148 157.293 125.992C147.874 128.833 142.541 138.776 145.384 148.198C146.201 150.902 153.991 174.948 175.772 186.085C184.591 190.595 200.955 196.997 215.606 191.617C231.261 185.868 239.658 171.282 235.981 160.646L235.984 160.639Z" fill="#95DCBC"/>
<path d="M213.573 155.198C211.719 156.796 208.921 156.588 207.323 154.734C205.725 152.881 205.933 150.082 207.786 148.484C209.64 146.886 212.439 147.094 214.037 148.948C215.635 150.801 215.427 153.6 213.573 155.198Z" fill="#95DCBC"/>
<path d="M160.51 172.21C158.656 173.808 155.857 173.601 154.259 171.747C152.661 169.893 152.869 167.095 154.723 165.497C156.577 163.899 159.375 164.106 160.973 165.96C162.571 167.814 162.363 170.612 160.51 172.21Z" fill="#95DCBC"/>
<path d="M181.532 142.324C180.009 143.637 177.71 143.467 176.397 141.943C175.084 140.42 175.254 138.121 176.778 136.808C178.301 135.495 180.6 135.665 181.913 137.189C183.226 138.712 183.056 141.011 181.532 142.324Z" fill="#95DCBC"/>
<path d="M203.657 195.433C202.134 196.746 199.835 196.576 198.522 195.053C197.209 193.53 197.379 191.23 198.902 189.917C200.426 188.604 202.725 188.775 204.038 190.298C205.351 191.821 205.18 194.12 203.657 195.433Z" fill="#95DCBC"/>
<path d="M229.171 185.656C227.648 186.969 225.348 186.799 224.035 185.275C222.723 183.752 222.893 181.453 224.416 180.14C225.939 178.827 228.238 178.997 229.551 180.521C230.864 182.044 230.694 184.343 229.171 185.656Z" fill="#95DCBC"/>
<path d="M167.992 131.225C165.869 133.055 162.663 132.818 160.833 130.694C159.002 128.571 159.24 125.366 161.364 123.535C163.487 121.705 166.692 121.942 168.523 124.066C170.353 126.189 170.116 129.395 167.992 131.225Z" fill="#95DCBC"/>
<path d="M187.644 191.693C185.521 193.523 182.315 193.286 180.485 191.162C178.655 189.039 178.892 185.833 181.016 184.003C183.139 182.172 186.344 182.41 188.175 184.533C190.005 186.657 189.768 189.862 187.644 191.693Z" fill="#95DCBC"/>
<g style="mix-blend-mode:multiply" opacity="0.1">
<path d="M222.053 164.047C219.929 165.878 216.724 165.64 214.894 163.517C213.063 161.393 213.301 158.188 215.424 156.357C217.548 154.527 220.753 154.764 222.584 156.888C224.414 159.011 224.177 162.217 222.053 164.047Z" fill="#3F4AAF"/>
</g>
<g style="mix-blend-mode:multiply" opacity="0.1">
<path d="M204.55 176.535C203.582 177.37 202.119 177.262 201.284 176.293C200.449 175.324 200.557 173.861 201.526 173.026C202.495 172.191 203.957 172.299 204.793 173.268C205.628 174.237 205.519 175.7 204.55 176.535Z" fill="#3F4AAF"/>
</g>
<g style="mix-blend-mode:multiply" opacity="0.1">
<path d="M165.911 141.512C164.565 142.672 162.534 142.522 161.374 141.176C160.214 139.831 160.365 137.799 161.71 136.639C163.056 135.479 165.087 135.63 166.247 136.976C167.407 138.321 167.257 140.352 165.911 141.512Z" fill="#3F4AAF"/>
</g>
<g style="mix-blend-mode:multiply" opacity="0.1">
<path d="M179.402 156.375C177.339 158.153 174.226 157.922 172.448 155.859C170.67 153.797 170.901 150.684 172.964 148.906C175.026 147.128 178.14 147.359 179.917 149.421C181.695 151.484 181.465 154.597 179.402 156.375Z" fill="#3F4AAF"/>
</g>
<g style="mix-blend-mode:multiply" opacity="0.1">
<path d="M191.313 167.509C189.984 168.655 187.977 168.506 186.831 167.177C185.685 165.848 185.834 163.841 187.163 162.695C188.493 161.549 190.499 161.698 191.645 163.027C192.791 164.357 192.642 166.363 191.313 167.509Z" fill="#3F4AAF"/>
</g>
<g style="mix-blend-mode:multiply" opacity="0.1">
<path d="M154.262 171.745C152.864 170.123 152.847 167.777 154.11 166.145C148.359 157.515 145.833 149.672 145.387 148.191C143.421 141.683 145.361 134.929 149.854 130.436C149.589 132.769 149.782 135.195 150.505 137.587C151.322 140.291 159.111 164.336 180.892 175.474C189.711 179.984 206.076 186.386 220.727 181.006C227.407 178.554 232.759 174.488 236.423 169.811C235.574 173.892 233.447 178.035 230.237 181.713C230.705 183.08 230.334 184.653 229.173 185.654C228.091 186.586 226.621 186.767 225.389 186.251C222.576 188.415 219.297 190.258 215.614 191.611C212.062 192.914 208.416 193.521 204.794 193.636C204.611 194.312 204.229 194.941 203.66 195.431C202.136 196.745 199.838 196.574 198.524 195.051C198.072 194.526 197.801 193.908 197.694 193.269C194.379 192.837 191.169 192.08 188.173 191.16C188.013 191.345 187.841 191.528 187.649 191.693C185.527 193.522 182.319 193.285 180.49 191.162C179.642 190.178 179.245 188.963 179.265 187.761C178.005 187.188 176.837 186.621 175.776 186.081C168.993 182.613 163.569 177.893 159.288 172.956C157.573 173.651 155.54 173.223 154.267 171.746L154.262 171.745Z" fill="#3F4AAF"/>
</g>
<path d="M194.234 181.133C192.171 182.911 189.058 182.68 187.28 180.617C185.502 178.555 185.733 175.441 187.795 173.664C189.858 171.886 192.971 172.116 194.749 174.179C196.527 176.241 196.296 179.355 194.234 181.133Z" fill="#95DCBC"/>
<path d="M220.817 183.238C219.391 184.467 217.24 184.308 216.011 182.882C214.782 181.456 214.941 179.305 216.367 178.076C217.793 176.847 219.944 177.006 221.173 178.432C222.402 179.858 222.243 182.009 220.817 183.238Z" fill="#95DCBC"/>
<path d="M162.913 157.569C161.487 158.798 159.336 158.639 158.107 157.213C156.878 155.787 157.037 153.636 158.463 152.407C159.888 151.178 162.04 151.337 163.269 152.763C164.498 154.189 164.339 156.34 162.913 157.569Z" fill="#95DCBC"/>
<path d="M169.224 175.533C168.175 176.437 166.592 176.32 165.688 175.271C164.784 174.222 164.901 172.639 165.95 171.735C166.999 170.831 168.582 170.948 169.486 171.997C170.39 173.046 170.273 174.629 169.224 175.533Z" fill="#95DCBC"/>
<path d="M206.449 189.934C205.4 190.839 203.817 190.721 202.913 189.672C202.009 188.623 202.126 187.04 203.175 186.136C204.224 185.232 205.807 185.349 206.711 186.398C207.615 187.447 207.498 189.03 206.449 189.934Z" fill="#95DCBC"/>
<path d="M155.327 132.713C150.327 127.713 163.875 114.72 152.427 114.135C140.978 113.551 154.137 132.647 157.508 109.755C160.88 86.8632 168.068 104.138 168.068 104.138" stroke="#95DCBC" stroke-width="2.94" stroke-linecap="round" stroke-linejoin="round"/>
<path d="M33.6022 497.975L8.66768 502.982C8.39165 503.037 8.13265 503.157 7.91184 503.332C7.69103 503.506 7.51468 503.731 7.39721 503.987L2.55574 514.524C2.4697 514.711 2.45128 514.923 2.50362 515.122C2.55596 515.322 2.67582 515.497 2.8428 515.618L27.0267 533.148C27.1264 533.22 27.2398 533.271 27.36 533.297C27.4802 533.323 27.6045 533.324 27.725 533.299C27.8456 533.275 27.9599 533.226 28.0607 533.156C28.1614 533.085 28.2466 532.995 28.3107 532.89L43.8538 507.385C43.9615 507.209 44.0046 507.001 43.9758 506.796C43.947 506.591 43.848 506.403 43.6958 506.263L35.1621 498.412C34.955 498.221 34.7057 498.082 34.4346 498.006C34.1635 497.93 33.8782 497.92 33.6022 497.975Z" fill="#909AF2"/>
<path d="M27.4474 508.287L28.9267 507.412L28.9266 507.412C29.7204 506.939 30.2915 506.214 30.5231 505.387L31.1436 503.156L31.1433 503.156C31.2085 502.991 31.3703 502.872 31.5607 502.849C31.7514 502.825 31.9375 502.901 32.0409 503.044L33.1897 505.055L33.1895 505.055C33.6169 505.8 34.3483 506.363 35.2339 506.627L36.8826 507.112L36.8826 507.112C37.0571 507.166 37.1804 507.305 37.2011 507.47C37.2217 507.637 37.1362 507.801 36.9803 507.896L35.501 508.771C34.7072 509.244 34.1361 509.969 33.9045 510.796L33.2841 513.028L33.2843 513.027C33.2336 513.203 33.0689 513.336 32.8699 513.361C32.6712 513.385 32.479 513.297 32.3867 513.139L31.2379 511.128L31.2381 511.128C30.8105 510.383 30.0792 509.822 29.1938 509.558L27.5451 509.072C27.365 509.024 27.2359 508.884 27.2148 508.715C27.1938 508.546 27.2847 508.379 27.4475 508.288L27.4474 508.287Z" fill="white"/>
<path d="M297.476 299.72C304.952 291.163 315.816 285.614 332.288 287.512C340.348 288.632 348.009 291.708 354.61 296.478C355.067 296.819 355.418 297.296 355.612 297.841C355.807 298.386 355.836 298.97 355.69 299.535C355.544 300.09 355.242 300.596 354.814 300.985C354.386 301.375 353.85 301.628 353.286 301.706C338.635 303.526 329.805 306.194 321.462 319.229L297.476 299.73V299.72Z" fill="#E3CDF7"/>
<g style="mix-blend-mode:multiply" opacity="0.1">
<path d="M347.396 296.81C348.827 297.491 348.525 299.604 346.958 299.857C338.284 301.239 331.791 303.449 326.048 309.037C324.967 310.088 323.195 309.815 322.475 308.501C321.219 306.204 319.243 302.923 316.955 300.334C314.911 298.017 316.147 294.366 319.155 293.694C325.707 292.225 336.182 291.446 347.396 296.819V296.81Z" fill="#3F4AAF"/>
</g>
<path d="M206.794 389.583H208.585L207.612 355.511C206.376 355.511 194.742 355.073 166.852 328.253C156.017 317.837 146.798 307.323 141.97 301.609C140.986 300.45 139.594 299.72 138.076 299.574C136.567 299.428 135.058 299.876 133.87 300.82L116.347 314.799C115.734 315.286 115.228 315.89 114.858 316.571C114.488 317.253 114.254 318.012 114.176 318.781C114.098 319.56 114.176 320.339 114.41 321.088C114.644 321.828 115.014 322.519 115.52 323.123C124.242 333.481 133.49 343.391 143.216 352.814C179.176 387.324 198.831 389.583 206.794 389.583V389.583Z" fill="#E3CDF7"/>
<g style="mix-blend-mode:multiply" opacity="0.1">
<path d="M168.049 329.392C177.589 338.465 185.173 344.383 191.053 348.248C194.304 354.663 198.12 360.757 201.683 366.511C204.01 370.249 206.239 373.841 208.245 377.375L208.595 389.583H206.804C200.466 389.583 186.73 388.132 163.269 370.181C159.58 360.115 158.986 348.706 164.447 335.914C165.518 333.539 166.735 331.368 168.059 329.392H168.049Z" fill="#3F4AAF"/>
</g>
<path d="M116.396 314.78L133.919 300.801C135.107 299.856 136.616 299.408 138.125 299.554C139.634 299.7 141.035 300.431 142.019 301.589C143.411 303.234 145.183 305.298 147.237 307.625C135.944 315.588 135.662 306.009 116.357 323.016L115.871 323.444L115.588 323.103C115.082 322.509 114.712 321.818 114.479 321.078C114.245 320.338 114.167 319.55 114.245 318.771C114.323 317.992 114.547 317.243 114.917 316.561C115.287 315.88 115.793 315.276 116.396 314.78V314.78Z" fill="#909AF2"/>
<path d="M272.067 408.137L270.402 407.485L283.69 376.099C284.839 376.547 295.84 380.373 331.567 365.527C345.449 359.764 357.861 353.32 364.432 349.747C365.765 349.027 367.333 348.851 368.793 349.26C370.253 349.669 371.499 350.643 372.259 351.957L383.512 371.349C383.902 372.021 384.155 372.77 384.252 373.539C384.349 374.308 384.291 375.097 384.077 375.846C383.863 376.596 383.512 377.297 383.025 377.91C382.539 378.523 381.935 379.03 381.254 379.4C369.358 385.883 357.15 391.753 344.66 396.991C298.614 416.071 279.485 411.028 272.067 408.137V408.137Z" fill="#E3CDF7"/>
<path d="M383.473 371.31L372.229 351.918C371.47 350.604 370.224 349.64 368.764 349.222C367.303 348.813 365.736 348.978 364.402 349.708C362.504 350.731 360.109 352.016 357.345 353.437C364.967 364.963 368.715 356.143 380.514 379.001L380.815 379.575L381.205 379.361C381.886 378.991 382.49 378.485 382.977 377.871C383.463 377.258 383.824 376.567 384.038 375.808C384.252 375.058 384.31 374.27 384.213 373.501C384.116 372.731 383.872 371.982 383.473 371.31V371.31V371.31Z" fill="#909AF2"/>
<g style="mix-blend-mode:multiply" opacity="0.1">
<path d="M276.243 393.681L283.691 376.1C283.691 376.1 283.778 376.129 283.837 376.149C284.713 376.46 288.003 377.385 295.353 376.46C302.742 375.526 314.239 372.722 331.567 365.528C334.156 364.457 336.687 363.357 339.15 362.257C341.272 377.122 329.006 395.969 315.621 402.881C304.611 408.566 292.978 406.911 283.593 400.359C282.931 403.796 282.688 407.232 282.834 410.678C277.811 410.153 274.364 409.043 272.057 408.147C271.425 407.904 270.87 407.68 270.393 407.495L276.234 393.691L276.243 393.681Z" fill="#3F4AAF"/>
</g>
<g style="mix-blend-mode:multiply" opacity="0.1">
<path d="M276.243 393.681L283.691 376.1C283.691 376.1 283.778 376.129 283.837 376.149C284.713 376.46 288.003 377.385 295.353 376.46C302.742 375.526 314.239 372.722 331.567 365.528C334.156 364.457 336.687 363.357 339.15 362.257C341.272 377.122 329.006 395.969 315.621 402.881C304.611 408.566 292.978 406.911 283.593 400.359C282.931 403.796 282.688 407.232 282.834 410.678C277.811 410.153 274.364 409.043 272.057 408.147C271.425 407.904 270.87 407.68 270.393 407.495L276.234 393.691L276.243 393.681Z" fill="url(#paint0_linear_262_1100)"/>
</g>
<path d="M185.339 467.247C171.437 461.64 161.731 451.311 156.465 437.585C153.924 431.355 152.036 424.336 150.478 417.56C149.086 411.077 146.808 404.71 142.894 399.064C134.639 386.671 119.287 381.833 105.873 388.56C103.127 389.923 100.596 391.588 98.513 393.749C108.355 394.42 117.769 395.92 123.016 404.058C125.907 408.682 127.202 415.409 127.805 421.289C128.905 430.566 131.417 439.444 136.197 447.797C142.437 459.031 154.197 468.688 167.203 470.255C173.345 471.005 179.936 470.401 185.329 467.238L185.339 467.247Z" fill="#FC8955"/>
<path d="M185.339 467.248C170.327 461.524 157.253 453.259 149.865 439.309C147.129 434.334 144.939 428.474 143.303 422.73C142.028 417.912 140.626 413.268 138.377 408.683C130.22 391.15 111.957 380.88 93.412 389.447C90.472 390.829 87.7462 392.533 85.478 394.752C102.456 394.762 113.943 399.707 118.44 416.714C119.472 420.248 120.125 424.191 120.767 427.9C122.373 436.359 125.42 444.4 130.599 451.721C138.533 463.276 152.513 471.327 166.395 471.522C172.985 471.629 179.615 470.548 185.339 467.248V467.248Z" fill="#FDD466"/>
<path d="M185.339 467.248C165.899 459.703 144.784 451.331 133.647 432.991C130.804 428.542 129.013 423.363 126.677 418.612C123.815 412.791 120.291 407.086 115.637 401.907C108.677 393.954 97.0436 386.877 86.1795 390.605C83.405 391.559 80.9615 393.117 79.1898 395.122C78.742 395.638 79.1411 396.427 79.8226 396.368C82.3147 396.154 84.6316 396.417 86.6467 397.011C93.9576 399.367 97.3454 405.568 100.636 412.363C102.748 416.938 104.51 421.932 106.165 427.072C108.034 433.302 110.011 439.63 113.496 445.218C120.69 457.503 133.442 466.664 146.974 470.081C159.824 473.303 173.394 472.885 185.359 467.258L185.339 467.248Z" fill="#95DCBC"/>
<g style="mix-blend-mode:multiply" opacity="0.1">
<path d="M147.772 470.246C150.429 460.735 153.71 450.767 157.76 440.643C163.24 452.84 172.498 462.059 185.339 467.238C184.735 467.589 184.122 467.91 183.499 468.192C180.169 469.799 176.587 470.723 172.917 471.171C164.671 472.67 156.076 472.213 147.772 470.237V470.246Z" fill="#3F4AAF"/>
</g>
<path d="M305.506 473.692C319.038 492.422 323.097 518.473 324.305 533.221C324.353 533.893 324.266 534.564 324.051 535.197C323.828 535.83 323.477 536.414 323.02 536.91C322.562 537.407 322.007 537.796 321.394 538.059C320.78 538.332 320.109 538.468 319.437 538.468H289.687C288.568 538.468 287.477 538.079 286.611 537.368C285.745 536.657 285.151 535.674 284.927 534.574C282.668 523.058 276.487 512.68 267.424 505.223C258.36 497.766 246.99 493.688 235.25 493.688C223.509 493.688 212.139 497.766 203.076 505.223C194.013 512.68 187.821 523.058 185.572 534.574C185.349 535.674 184.755 536.657 183.879 537.368C183.012 538.079 181.922 538.468 180.802 538.468H151.004C150.342 538.468 149.68 538.332 149.067 538.069C148.453 537.806 147.908 537.417 147.451 536.93C146.993 536.443 146.643 535.869 146.419 535.246C146.195 534.623 146.097 533.951 146.136 533.289C147.898 506.82 156.65 437.838 200.097 382.398L203.339 343.809L266.012 278.332L287.331 376.995C260.395 408.634 281.101 439.902 305.506 473.692V473.692Z" fill="#E3CDF7"/>
<path d="M186.215 531.829C185.982 532.744 185.768 533.669 185.592 534.603C185.368 535.703 184.775 536.696 183.898 537.397C183.032 538.108 181.942 538.497 180.822 538.497H151.024C150.362 538.497 149.7 538.361 149.086 538.098C148.473 537.835 147.918 537.446 147.47 536.959C147.013 536.472 146.662 535.898 146.439 535.275C146.215 534.652 146.117 533.98 146.156 533.318C146.361 530.31 146.653 526.737 147.071 522.707C164.448 523.476 155.833 531.79 183.168 531.79C184.249 531.761 185.252 531.79 186.215 531.829V531.829Z" fill="#909AF2"/>
<g style="mix-blend-mode:multiply" opacity="0.1">
<path d="M172.304 428.376L172.284 428.347C172.693 427.451 173.141 426.585 173.56 425.699C173.637 425.533 173.715 425.368 173.793 425.202C174.591 423.528 175.399 421.863 176.237 420.218C177.103 418.505 177.999 416.782 178.904 415.068C179.031 414.825 179.167 414.581 179.293 414.338C185.144 403.464 192.017 392.697 200.087 382.398L203.329 343.809L248.528 280.736L255.547 300.05L219.722 343.809L216.481 382.398C209.394 391.432 203.241 400.836 197.887 410.347C201.226 412.829 204.585 415.175 207.817 417.444C210.357 419.206 212.82 420.919 215.186 422.642L230.285 455.234L230.742 463.159C220.599 459.148 209.657 455.604 198.734 450.094L198.578 450.017C190.109 445.646 179.77 449.861 176.85 458.934C166.677 490.465 163.513 518.502 162.53 533.289C162.491 533.951 162.579 534.623 162.812 535.246C163.036 535.869 163.387 536.443 163.844 536.93C164.302 537.417 164.847 537.806 165.46 538.069C166.073 538.332 166.735 538.468 167.397 538.468H151.004C150.342 538.468 149.68 538.332 149.067 538.069C148.453 537.806 147.908 537.417 147.451 536.93C146.993 536.443 146.643 535.869 146.419 535.246C146.195 534.623 146.097 533.951 146.136 533.289C147.431 513.848 152.493 471.472 172.313 428.376H172.304Z" fill="#3F4AAF"/>
</g>
<g style="mix-blend-mode:multiply" opacity="0.1">
<path d="M225.574 333.218C224.581 329.947 223.724 326.637 222.965 323.307L253.522 291.377C253.552 292.136 253.737 292.876 254.068 293.567C256.569 298.62 259.412 303.497 262.576 308.17C267.132 314.974 271.639 320.514 276.127 325.157L287.332 376.995C280.654 384.842 276.906 392.669 275.416 400.515C265.214 397.556 255.732 392.279 247.789 384.929C234.364 372.517 226.43 355.277 225.72 337.014L225.574 333.227V333.218Z" fill="#3F4AAF"/>
</g>
<path d="M329.97 368.059L327.936 315.918C327.731 310.632 326.495 305.424 324.276 300.615C322.066 295.806 318.921 291.484 315.037 287.882C311.153 284.29 306.587 281.496 301.622 279.666C296.658 277.836 291.372 276.998 286.086 277.212L233.4 279.276L235.26 326.831C235.97 345.094 243.914 362.334 257.338 374.737C270.763 387.149 288.558 393.72 306.831 392.999C309.985 392.883 313.09 392.143 315.972 390.819C318.843 389.505 321.433 387.626 323.575 385.309C325.726 382.992 327.4 380.276 328.491 377.307C329.591 374.347 330.097 371.193 329.97 368.029V368.059Z" fill="#E3CDF7"/>
<path d="M233.4 279.286C236.701 271.537 263.939 278.089 263.939 278.089L286.076 277.223C291.362 277.008 296.648 277.846 301.613 279.676C306.578 281.506 311.143 284.3 315.028 287.892C318.912 291.484 322.056 295.816 324.266 300.625C326.476 305.434 327.722 310.633 327.926 315.929L328.929 341.551C331.46 343.43 333.621 345.766 335.257 348.599C344.028 363.795 331.149 389.067 316.848 397.322C304.864 404.234 292.053 400.291 283.048 389.885C273.576 386.838 264.776 381.756 257.339 374.873C244.742 363.221 236.973 347.324 235.484 330.307C235.377 329.158 235.308 328.01 235.26 326.861L235.114 323.142C233.527 317.924 232.242 312.609 231.288 307.235C229.76 297.899 229.653 288.096 233.4 279.306V279.286Z" fill="#E3CDF7"/>
<path d="M312.457 227.827C308.894 235.537 304.912 240.697 297.338 242.176C288.772 243.656 278.93 243.111 269.983 243.072C259.606 242.975 247.398 247.219 242.258 257.363C235.775 269.862 244.672 283.598 257.552 285.974C258.36 283.024 260.599 268.782 264.269 270.787C265.135 271.673 264.58 273.464 264.259 274.37C263.879 275.295 264.123 275.518 264.902 275.713C266.226 275.957 267.91 276.034 269.35 276.122C273.673 276.297 277.888 276.171 282.23 275.567C293.201 274.117 305.272 269.327 312.554 260.166C320.225 251.162 321.442 236.189 312.447 227.827H312.457Z" fill="#FDD466"/>
<g style="mix-blend-mode:multiply" opacity="0.1">
<path d="M301.622 279.666C306.587 281.496 311.152 284.29 315.037 287.882C318.921 291.474 322.065 295.806 324.275 300.615C325.521 303.331 326.446 306.164 327.069 309.075C319.914 311.119 311.882 310.603 305.068 308.53C295.888 305.775 288.752 301.452 281.675 295.884C277.995 292.886 274.13 289.449 270.314 286.908C263.841 282.275 253.872 281.252 245.315 281.535C245.442 280.6 245.646 279.685 245.89 278.79L286.085 277.222C291.371 277.008 296.657 277.845 301.622 279.675V279.666Z" fill="#3F4AAF"/>
</g>
<path d="M326.115 323.123C324.333 330.034 319.495 334.766 315.309 333.685C312.7 333.013 310.957 330.239 310.441 326.559C312.729 321.117 318.103 310.457 322.892 316.999C324.216 318.8 325.365 319.988 326.621 320.416C326.514 321.302 326.348 322.207 326.115 323.113V323.123Z" fill="#C591E7"/>
<path d="M325.073 322.305C323.437 328.633 319.008 332.965 315.182 331.982C312.787 331.368 311.191 328.818 310.724 325.459C312.817 320.475 317.742 310.721 322.123 316.708C323.33 318.353 324.391 319.443 325.54 319.832C325.443 320.64 325.287 321.468 325.073 322.305V322.305Z" fill="white"/>
<path d="M315.645 328.709C313.172 328.072 312.085 323.993 313.218 319.599C314.35 315.205 317.273 312.159 319.746 312.796C322.219 313.434 323.305 317.512 322.173 321.907C321.041 326.301 318.118 329.346 315.645 328.709Z" fill="#909AF2"/>
<path d="M316.218 326.484C314.432 326.024 313.646 323.085 314.462 319.92C315.277 316.754 317.386 314.561 319.172 315.021C320.958 315.481 321.744 318.421 320.929 321.586C320.113 324.752 318.004 326.945 316.218 326.484Z" fill="#10132C"/>
<path d="M315.28 321.351C314.603 321.351 314.053 320.801 314.053 320.124C314.053 319.447 314.603 318.897 315.28 318.897C315.957 318.897 316.507 319.447 316.507 320.124C316.507 320.801 315.957 321.351 315.28 321.351Z" fill="white"/>
<g style="mix-blend-mode:multiply" opacity="0.1">
<path d="M240.448 266.933C248.528 257.227 261.816 251.464 274.783 249.615C283.671 248.437 293.708 248.758 302.314 247.804C307.736 247.171 311.552 247.025 316.137 245.117C317.081 244.66 317.948 244.134 318.766 243.55C318.668 249.527 316.449 255.611 312.564 260.167C305.283 269.318 293.212 274.117 282.24 275.568C277.899 276.171 273.674 276.308 269.361 276.123C267.92 276.035 266.226 275.957 264.912 275.714C264.143 275.519 263.9 275.295 264.27 274.371C264.591 273.465 265.156 271.674 264.279 270.788C261.573 269.308 259.646 276.668 258.497 281.808C255.187 281.789 251.877 281.847 248.558 282.051C243.768 278.518 240.565 273.154 240.156 267.313C240.254 267.186 240.351 267.06 240.448 266.943V266.933Z" fill="#3F4AAF"/>
</g>
<path d="M355.495 237.776C352.837 243.471 349.459 249.273 343.628 251.483C339.481 252.788 336.181 252.447 331.449 252.379C323.954 252.223 315.358 250.617 307.599 250.646C296.258 250.811 284.206 254.822 276.184 263.408C272.183 267.799 268.854 273.455 269.029 279.588C283.836 277.835 297.514 282.499 311.882 283.959C323.165 285.156 335.197 284.027 345.653 278.303C351.571 275.071 357.15 269.775 359.836 263.389C363.604 254.812 362.202 244.299 355.495 237.776V237.776Z" fill="#95DCBC"/>
<g style="mix-blend-mode:multiply" opacity="0.1">
<path d="M276.185 263.409C280.166 259.154 285.141 256.02 290.524 253.917C293.318 254.491 296.024 255.299 298.594 256.341C302.596 257.85 306.275 259.923 309.77 262.153C318.064 267.244 326.212 272.559 335.149 275.898C343.862 279.13 351.913 272.15 357.841 266.835C357.87 266.903 357.89 266.971 357.929 267.04C354.94 271.781 350.413 275.704 345.663 278.293C335.207 284.017 323.175 285.147 311.892 283.949C298.205 282.567 285.131 278.274 271.123 279.383C270.451 279.14 269.75 278.916 269.049 278.712C269.185 272.92 272.388 267.585 276.194 263.399L276.185 263.409Z" fill="#3F4AAF"/>
</g>
<path d="M281.223 284.033C281.777 284.906 283.712 286.472 287.603 289.604C289.705 291.299 289.087 290.67 291.929 292.913C295.827 295.982 296.887 297.017 298.78 297.309C299.876 297.473 300.661 297.245 301.627 296.965C303.366 296.448 304.561 295.497 305.978 293.991C308.021 291.825 311.117 288.443 312.483 282.667C312.72 281.692 312.841 280.869 312.91 280.353C313.881 279.403 314.993 278.216 316.096 276.747C316.096 276.747 317.395 274.995 318.493 273.055C320.932 268.722 321.941 264.452 322.417 261.328C323.363 260.411 324.34 259.346 325.299 258.094C327.748 254.839 329.074 251.536 329.815 248.892C330.085 247.527 330.331 246.196 330.568 244.875C331.236 244.161 331.908 243.362 332.54 242.43C334.84 239.13 335.843 235.718 336.304 233.067C338.999 228.481 340.894 224.647 342.138 221.956C343.255 219.512 344.019 217.662 343.454 217.23C343.249 217.073 342.641 216.936 338.911 219.711C336.385 221.578 334.492 223.255 333.29 224.373C332.885 224.53 332.477 224.718 332.073 224.927C328.529 226.74 326.366 229.488 325.033 231.922C323.112 232.438 319.186 233.82 316.417 237.573C315.268 239.128 314.623 240.69 314.229 241.977C311.964 242.73 308.033 244.437 305.114 248.334C304.01 249.803 303.292 251.274 302.8 252.555C298.603 254.611 294.103 257.833 290.992 262.964C290.685 263.472 290.391 263.99 290.139 264.505C289.92 264.631 289.626 264.803 289.307 265.008C282.63 269.294 277.819 278.615 281.236 284.043L281.223 284.033Z" fill="#FC6DFF"/>
<path d="M314.226 241.957C313.65 243.588 313.705 244.925 313.844 245.808C314.445 249.704 317.697 251.57 320.563 256.974C321.522 258.778 322.084 260.331 322.393 261.31C322.706 258.613 322.163 256.61 321.639 255.328C320.164 251.696 317.516 250.344 315.514 245.912C314.756 244.244 314.402 242.817 314.222 241.936L314.226 241.957Z" fill="#CF42D2"/>
<path d="M302 257.245C301.814 262.196 304.572 266.464 305.687 268.197C307.551 271.108 308.481 271.301 310.336 274.516C311.692 276.866 312.464 278.941 312.898 280.343C312.906 279.055 312.813 277.102 312.178 274.768C310.604 269.058 307.338 266.732 305.095 261.338C304.225 259.257 303.292 256.195 303.278 252.196C302.741 253.27 302.077 254.99 302 257.245V257.245Z" fill="#CF42D2"/>
<path d="M325.021 231.913C324.641 233.021 324.666 233.92 324.762 234.512C325.173 237.14 327.363 238.4 329.291 242.051C329.929 243.264 330.315 244.302 330.536 244.972C330.749 243.149 330.38 241.797 330.035 240.945C329.041 238.493 327.259 237.579 325.894 234.601C325.38 233.465 325.152 232.513 325.013 231.924L325.021 231.913Z" fill="#CF42D2"/>
<path d="M288.686 270.37C288.476 276.097 291.657 281.035 292.95 283.042C295.116 286.408 296.182 286.637 298.327 290.35C299.891 293.066 300.786 295.46 301.29 297.088C301.309 295.601 301.191 293.335 300.453 290.629C298.631 284.021 294.855 281.323 292.263 275.109C291.258 272.7 290.178 269.164 290.165 264.526C289.546 265.762 288.779 267.748 288.686 270.37V270.37Z" fill="#CF42D2"/>
<path d="M332.858 225.977C332.806 227.508 333.662 228.836 334.003 229.374C334.574 230.276 334.876 230.334 335.435 231.332C335.86 232.054 336.097 232.701 336.234 233.134C336.233 232.736 336.208 232.13 336.008 231.408C335.528 229.642 334.514 228.918 333.819 227.247C333.553 226.611 333.269 225.652 333.257 224.417C333.084 224.751 332.879 225.284 332.858 225.977V225.977Z" fill="#CF42D2"/>
<path d="M319.457 538.468H289.707C288.587 538.468 287.497 538.078 286.631 537.368C285.764 536.657 285.17 535.674 284.947 534.574C284.791 533.737 284.596 532.909 284.392 532.082C286.543 531.838 288.714 531.721 290.885 531.731C315.933 531.731 310.773 524.741 323.166 522.97C323.701 526.727 324.061 530.183 324.305 533.172C324.363 533.844 324.285 534.525 324.071 535.158C323.857 535.8 323.506 536.384 323.049 536.881C322.591 537.377 322.036 537.777 321.423 538.049C320.81 538.322 320.138 538.458 319.466 538.458L319.457 538.468Z" fill="#909AF2"/>
<path d="M344.096 271.079C338.849 276.394 331.713 283.374 324.013 280.142C316.108 276.803 308.884 271.488 301.544 266.397C298.449 264.167 295.197 262.094 291.654 260.585C279.709 255.104 264.065 255.922 254.116 264.946C249.297 269.298 245.793 275.022 245.316 281.525C253.834 280.687 263.851 281.067 270.607 285.263C274.579 287.551 278.667 290.724 282.532 293.479C289.95 298.57 297.349 302.416 306.694 304.577C317.101 307.02 329.999 305.823 338.148 297.957C345.488 291.006 347.785 280.22 344.096 271.069V271.079Z" fill="#FC8955"/>
<path d="M229.671 409.85C229.107 416.266 227.111 422.467 223.83 428.006C214.962 415.506 200.467 405.119 188.473 390.712C176.791 376.547 167.718 358.353 177.307 335.914C181.766 326.043 188.551 319.705 196.135 316.045C194.558 334.746 205.422 351.772 214.543 366.511C223.879 381.483 231.57 394.187 229.671 409.85V409.85Z" fill="#95DCBC"/>
<path d="M232.923 446.941C234.208 451.38 234.977 455.955 235.211 460.569C235.231 461.115 235.094 461.64 234.822 462.117C234.549 462.585 234.16 462.974 233.683 463.227C233.206 463.49 232.67 463.607 232.125 463.578C231.58 463.548 231.064 463.373 230.616 463.062C218.934 454.884 204.926 448.81 191.511 439.182C176.714 428.415 162.705 413.073 163.981 388.453C164.769 377.56 168.761 369.461 174.28 363.756C178.437 382.583 193.098 396.319 205.52 408.322C218.302 420.559 228.835 430.946 232.914 446.941H232.923Z" fill="#FDD466"/>
<g style="mix-blend-mode:multiply" opacity="0.1">
<path d="M174.484 422.993C173.267 418.154 172.713 412.859 173.014 407.047C173.774 396.543 177.512 388.638 182.74 382.973C178.884 377.171 175.847 370.823 174.29 363.756C168.77 369.461 164.779 377.56 163.99 388.453C163.25 402.812 167.699 414.017 174.484 422.993Z" fill="#3F4AAF"/>
</g>
<path d="M239.572 374.98C236.7 380.899 232.427 386.039 227.121 389.933C222.137 375.876 210.289 362.033 202.404 345.153C194.753 328.603 191.063 309.026 207.992 291.085C214.845 284.018 223.948 279.539 233.731 278.43C226.333 295.145 232.388 314.118 237.382 330.463C242.561 347.09 246.679 361.098 239.572 374.98V374.98Z" fill="#FC8955"/>
<g style="mix-blend-mode:multiply" opacity="0.1">
<path d="M182.058 381.96C181.445 374.999 182.487 367.494 185.923 359.453C189.613 351.285 194.889 345.542 200.896 341.735C197.488 333.607 195.376 325.021 196.135 316.045C188.552 319.705 181.766 326.043 177.308 335.914C169.588 353.972 173.959 369.285 182.058 381.96Z" fill="#3F4AAF"/>
</g>
<g style="mix-blend-mode:multiply" opacity="0.1">
<path d="M200.778 341.424C200.048 330.911 202.959 320.056 212.694 309.747C217.62 304.665 223.694 300.937 230.353 298.815C230.002 291.874 230.83 284.981 233.731 278.43C223.947 279.539 214.855 284.008 207.992 291.085C192.319 307.693 194.314 325.712 200.778 341.424V341.424Z" fill="#3F4AAF"/>
</g>
<path d="M278.298 383.148C287.069 398.344 302.557 405.558 316.858 397.302C331.149 389.047 344.038 363.775 335.266 348.579C326.495 333.383 302.596 332.439 288.296 340.694C274.005 348.949 269.527 367.952 278.298 383.148V383.148Z" fill="#C591E7"/>
<g style="mix-blend-mode:multiply" opacity="0.5">
<g style="mix-blend-mode:multiply" opacity="0.5">
<path d="M325.736 374.747C325.736 373.374 325.921 371.856 326.67 370.493C327.352 369.257 328.851 369.169 330.243 369.831C331.625 370.503 331.587 371.554 330.623 371.914C328.919 372.635 327.702 373.774 327.011 374.99C326.709 375.545 325.775 375.38 325.726 374.747H325.736Z" fill="#10132C"/>
</g>
</g>
<g style="mix-blend-mode:multiply" opacity="0.5">
<g style="mix-blend-mode:multiply" opacity="0.5">
<path d="M316.916 378.495C315.222 377.21 313.187 376.168 310.909 375.496C308.339 374.757 306.704 372.391 308.797 370.152C310.909 367.884 315.115 368.03 317.033 370.425C318.483 372.226 319.155 374.494 319.758 376.635C320.148 378.359 318.181 379.507 316.916 378.495V378.495Z" fill="#10132C"/>
</g>
</g>
<g style="mix-blend-mode:multiply" opacity="0.5">
<g style="mix-blend-mode:multiply" opacity="0.5">
<path d="M304.348 388.551C303.336 387.519 296.999 386.399 294.672 381.717C291.82 377.696 292.141 371.923 289.512 369.704C286.767 366.939 280.245 376.655 287.916 385.552C295.733 394.109 305.867 389.797 304.348 388.541V388.551Z" fill="#10132C"/>
</g>
</g>
<path d="M289.502 369.704C292.131 371.923 291.8 377.696 294.662 381.717C295.684 383.78 297.495 385.143 299.276 386.126C293.25 385.854 287.935 382.924 284.46 378.455C283.486 372.332 287.507 367.689 289.512 369.704H289.502Z" fill="white"/>
<path d="M255.254 313.611C255.254 322.84 262.741 330.326 271.969 330.326C277.732 330.326 282.814 327.415 285.822 322.976C283.992 315.431 278.55 300.352 265.165 307.001C261.475 308.831 258.457 309.941 255.644 310.077C255.391 311.216 255.264 312.404 255.264 313.621L255.254 313.611Z" fill="#C591E7"/>
<path d="M257.834 312.911C257.834 321.36 264.688 328.214 273.137 328.214C278.414 328.214 283.067 325.546 285.822 321.487C284.148 314.575 279.163 300.771 266.907 306.855C263.529 308.53 260.764 309.552 258.185 309.669C257.951 310.71 257.834 311.801 257.834 312.911V312.911Z" fill="white"/>
<path d="M273.439 324.417C267.982 324.417 263.558 319.662 263.558 313.797C263.558 307.931 267.982 303.176 273.439 303.176C278.896 303.176 283.32 307.931 283.32 313.797C283.32 319.662 278.896 324.417 273.439 324.417Z" fill="#909AF2"/>
<path d="M273.439 321.448C269.503 321.448 266.313 318.022 266.313 313.796C266.313 309.57 269.503 306.145 273.439 306.145C277.374 306.145 280.565 309.57 280.565 313.796C280.565 318.022 277.374 321.448 273.439 321.448Z" fill="#10132C"/>
<path d="M267.374 315.958C266.18 315.958 265.213 314.99 265.213 313.797C265.213 312.603 266.18 311.636 267.374 311.636C268.568 311.636 269.535 312.603 269.535 313.797C269.535 314.99 268.568 315.958 267.374 315.958Z" fill="white"/>
<path d="M234.218 299.281C230.626 288.495 231.346 276.317 241.325 263.087C246.377 256.701 252.909 251.658 260.356 248.378C260.892 248.154 261.476 248.095 262.041 248.202C262.605 248.309 263.131 248.582 263.54 248.991C263.949 249.4 264.231 249.916 264.348 250.48C264.465 251.045 264.416 251.629 264.192 252.164C258.341 265.715 256.17 274.681 263.18 288.485L234.218 299.291V299.281Z" fill="#E3CDF7"/>
<g style="mix-blend-mode:multiply" opacity="0.1">
<path d="M257.007 254.763C258.322 253.877 259.986 255.201 259.412 256.681C256.209 264.858 254.827 271.575 256.735 279.363C257.095 280.824 255.956 282.216 254.457 282.177C251.838 282.099 248.012 282.138 244.625 282.8C241.597 283.384 239.076 280.473 240.01 277.533C242.064 271.137 246.698 261.714 257.007 254.773V254.763Z" fill="#3F4AAF"/>
</g>
<path d="M292.15 279.083L292.276 281.293C292.276 281.361 292.335 281.448 292.442 281.487C292.549 281.526 292.646 281.487 292.685 281.448L294.515 279.423C295.255 278.606 296.326 278.109 297.484 278.022L299.5 277.876C299.597 277.876 299.646 277.817 299.665 277.768C299.685 277.72 299.665 277.652 299.607 277.584H299.597L298.127 276.211C297.27 275.413 296.754 274.352 296.696 273.251L296.667 272.745L296.54 270.555C296.521 270.487 296.462 270.409 296.365 270.37C296.268 270.331 296.17 270.36 296.112 270.399L294.301 272.405C293.61 273.174 292.627 273.66 291.546 273.787L291.322 273.806L289.521 273.933L289.297 273.952C289.2 273.952 289.151 274.011 289.132 274.05C289.112 274.089 289.132 274.167 289.2 274.235L290.68 275.617C291.536 276.415 292.052 277.476 292.111 278.576L292.14 279.083H292.15Z" fill="white"/>
<path d="M347.288 265.444L348.797 266.125C348.797 266.125 348.914 266.135 348.982 266.077C349.05 266.018 349.06 265.95 349.041 265.901L348.32 263.984C348.028 263.205 348.067 262.329 348.408 261.521L349.002 260.128C349.031 260.06 349.011 260.012 348.982 259.982C348.953 259.953 348.904 259.934 348.836 259.963H348.827L347.415 260.469C346.588 260.761 345.711 260.742 344.952 260.401L344.602 260.245L343.102 259.574C343.054 259.564 342.976 259.574 342.917 259.632C342.859 259.69 342.84 259.759 342.849 259.807L343.56 261.706C343.833 262.436 343.813 263.244 343.531 264.013L343.463 264.168L342.927 265.405L342.859 265.561C342.83 265.629 342.849 265.677 342.869 265.707C342.888 265.736 342.947 265.755 343.015 265.726L344.436 265.21C345.264 264.918 346.14 264.938 346.889 265.278L347.24 265.434L347.288 265.444Z" fill="white"/>
<path d="M263.861 245.127L263.803 246.198C263.803 246.198 263.822 246.276 263.871 246.295C263.919 246.315 263.968 246.305 263.988 246.295L264.971 245.419C265.37 245.069 265.905 244.884 266.47 244.903L267.443 244.942C267.443 244.942 267.521 244.923 267.531 244.903C267.541 244.884 267.541 244.845 267.512 244.806L266.879 244.066C266.519 243.638 266.324 243.102 266.353 242.567V242.323H266.363L266.421 241.262C266.421 241.262 266.392 241.184 266.343 241.165C266.295 241.146 266.246 241.146 266.217 241.165L265.243 242.031C264.873 242.362 264.377 242.538 263.851 242.547H263.744L262.878 242.508H262.771C262.771 242.508 262.693 242.528 262.683 242.547C262.673 242.567 262.673 242.606 262.703 242.635L263.335 243.375C263.695 243.803 263.89 244.339 263.861 244.864V245.108V245.127Z" fill="white"/>
<path d="M359.925 292.945L360.752 293.617C360.752 293.617 360.821 293.646 360.879 293.617C360.937 293.588 360.947 293.549 360.947 293.52L360.811 292.205C360.762 291.68 360.928 291.134 361.268 290.687L361.872 289.918C361.872 289.918 361.901 289.849 361.882 289.82C361.862 289.791 361.843 289.781 361.794 289.781L360.83 289.869C360.266 289.918 359.721 289.762 359.312 289.421L359.117 289.265L358.29 288.603C358.29 288.603 358.212 288.584 358.163 288.603C358.114 288.623 358.095 288.672 358.095 288.701L358.231 289.995C358.28 290.492 358.134 290.998 357.832 291.426L357.764 291.514L357.228 292.196L357.16 292.283C357.16 292.283 357.131 292.351 357.141 292.371C357.151 292.39 357.18 292.41 357.228 292.41L358.202 292.322C358.767 292.273 359.312 292.429 359.721 292.77L359.915 292.926L359.925 292.945Z" fill="white"/>
<path d="M88.2622 418.71L89.0896 419.382C89.0896 419.382 89.1578 419.411 89.2162 419.382C89.2746 419.352 89.2844 419.313 89.2844 419.284L89.148 417.97C89.0994 417.444 89.2649 416.899 89.6056 416.451L90.2092 415.682C90.2092 415.682 90.2384 415.614 90.2189 415.585C90.1994 415.556 90.18 415.546 90.1313 415.546L89.1675 415.634C88.6029 415.682 88.0577 415.526 87.6489 415.186L87.4542 415.03L86.6267 414.368C86.6267 414.368 86.5488 414.349 86.5002 414.368C86.4515 414.387 86.432 414.436 86.432 414.465L86.5683 415.76C86.617 416.257 86.471 416.763 86.1692 417.191L86.101 417.279L85.5656 417.96L85.4975 418.048C85.4975 418.048 85.4683 418.116 85.478 418.135C85.4877 418.155 85.5169 418.174 85.5656 418.174L86.5391 418.087C87.1037 418.038 87.6489 418.194 88.0577 418.535L88.2525 418.69L88.2622 418.71Z" fill="white"/>
<path d="M134.094 456.297L134.727 457.835C134.727 457.835 134.805 457.932 134.892 457.932C134.98 457.932 135.038 457.883 135.058 457.844L135.856 455.966C136.177 455.206 136.81 454.593 137.618 454.243L139.01 453.649C139.078 453.62 139.098 453.571 139.098 453.532C139.098 453.493 139.078 453.444 139.01 453.415H139.001L137.628 452.802C136.83 452.442 136.207 451.828 135.895 451.059L135.749 450.709L135.126 449.19C135.126 449.19 135.038 449.103 134.951 449.103C134.863 449.103 134.805 449.141 134.776 449.18L133.987 451.04C133.685 451.75 133.111 452.335 132.381 452.695L132.225 452.763L130.989 453.289L130.833 453.357C130.765 453.386 130.745 453.435 130.736 453.474C130.726 453.512 130.755 453.561 130.823 453.59L132.206 454.204C133.004 454.564 133.627 455.177 133.938 455.946L134.084 456.297H134.094Z" fill="white"/>
<path d="M118.343 408.635L119.462 409.861C119.462 409.861 119.569 409.92 119.647 409.89C119.725 409.861 119.764 409.803 119.774 409.754L119.881 407.71C119.929 406.882 120.309 406.094 120.942 405.49L122.042 404.458C122.091 404.41 122.1 404.351 122.091 404.322C122.081 404.293 122.042 404.244 121.964 404.244H121.954L120.455 404.147C119.579 404.088 118.781 403.718 118.226 403.105L117.973 402.823L116.863 401.606C116.863 401.606 116.746 401.557 116.678 401.586C116.61 401.616 116.561 401.674 116.542 401.723L116.435 403.748C116.396 404.517 116.055 405.266 115.49 405.85L115.374 405.967L114.39 406.892L114.264 407.009C114.205 407.058 114.205 407.116 114.215 407.145C114.225 407.174 114.264 407.213 114.342 407.223L115.851 407.32C116.717 407.379 117.525 407.749 118.08 408.362L118.333 408.644L118.343 408.635Z" fill="white"/>
<path d="M93.4701 380.14C92.7711 380.14 92.2045 379.574 92.2045 378.875C92.2045 378.176 92.7711 377.609 93.4701 377.609C94.169 377.609 94.7356 378.176 94.7356 378.875C94.7356 379.574 94.169 380.14 93.4701 380.14Z" fill="white"/>
<path d="M135.408 422.955C134.709 422.955 134.143 422.388 134.143 421.689C134.143 420.99 134.709 420.424 135.408 420.424C136.107 420.424 136.674 420.99 136.674 421.689C136.674 422.388 136.107 422.955 135.408 422.955Z" fill="white"/>
<path d="M320.44 291.105C319.741 291.105 319.174 290.539 319.174 289.84C319.174 289.141 319.741 288.574 320.44 288.574C321.139 288.574 321.705 289.141 321.705 289.84C321.705 290.539 321.139 291.105 320.44 291.105Z" fill="white"/>
<path d="M277.946 282.013C277.247 282.013 276.681 281.446 276.681 280.747C276.681 280.048 277.247 279.481 277.946 279.481C278.645 279.481 279.212 280.048 279.212 280.747C279.212 281.446 278.645 282.013 277.946 282.013Z" fill="white"/>
<path d="M291.478 238.575C290.779 238.575 290.213 238.008 290.213 237.309C290.213 236.611 290.779 236.044 291.478 236.044C292.177 236.044 292.744 236.611 292.744 237.309C292.744 238.008 292.177 238.575 291.478 238.575Z" fill="white"/>
<path d="M227.384 342.787L228.893 343.469C228.893 343.469 229.009 343.479 229.078 343.42C229.146 343.362 229.155 343.294 229.136 343.245L228.416 341.327C228.123 340.548 228.162 339.672 228.503 338.864L229.097 337.472C229.126 337.404 229.107 337.355 229.078 337.326C229.048 337.297 229 337.278 228.931 337.307H228.922L227.51 337.813C226.683 338.105 225.807 338.086 225.047 337.745L224.697 337.589L223.198 336.917C223.149 336.908 223.071 336.917 223.013 336.976C222.954 337.034 222.935 337.102 222.945 337.151L223.655 339.049C223.928 339.779 223.908 340.587 223.626 341.356L223.558 341.512L223.022 342.749L222.954 342.904C222.925 342.972 222.945 343.021 222.964 343.05C222.983 343.08 223.042 343.099 223.11 343.07L224.531 342.554C225.359 342.262 226.235 342.281 226.984 342.622L227.335 342.778L227.384 342.787Z" fill="white"/>
<path d="M186.011 337.512L186.488 339.099C186.488 339.099 186.556 339.196 186.644 339.206C186.731 339.215 186.79 339.176 186.819 339.137L187.792 337.336C188.192 336.606 188.873 336.061 189.7 335.789L191.141 335.331C191.209 335.312 191.239 335.263 191.239 335.224C191.239 335.185 191.219 335.136 191.161 335.097H191.151L189.846 334.358C189.087 333.929 188.522 333.248 188.279 332.459L188.172 332.099L187.695 330.522C187.695 330.522 187.617 330.434 187.53 330.425C187.442 330.415 187.384 330.444 187.354 330.493L186.391 332.274C186.021 332.956 185.398 333.481 184.638 333.764L184.483 333.822L183.198 334.231L183.032 334.28C182.964 334.299 182.935 334.348 182.925 334.387C182.915 334.426 182.944 334.474 183.003 334.513L184.327 335.253C185.086 335.682 185.651 336.363 185.894 337.152L186.001 337.512H186.011Z" fill="white"/>
<path d="M191.725 401.557L191.822 403.212C191.822 403.261 191.861 403.329 191.949 403.358C192.036 403.388 192.095 403.358 192.134 403.329L193.496 401.81C194.051 401.197 194.85 400.827 195.716 400.759L197.225 400.652C197.293 400.652 197.332 400.603 197.351 400.574C197.371 400.545 197.351 400.487 197.303 400.438L196.203 399.406C195.57 398.812 195.181 398.014 195.132 397.196L195.112 396.816L195.025 395.171C195.015 395.123 194.966 395.064 194.888 395.035C194.811 395.006 194.742 395.025 194.704 395.054L193.35 396.554C192.834 397.128 192.095 397.488 191.296 397.585L191.131 397.605L189.787 397.702H189.612C189.534 397.722 189.495 397.761 189.486 397.79C189.476 397.819 189.486 397.878 189.534 397.926L190.644 398.958C191.277 399.552 191.666 400.35 191.715 401.168L191.734 401.548L191.725 401.557Z" fill="white"/>
<path d="M211.097 290.171L212.217 291.397C212.217 291.397 212.324 291.456 212.402 291.426C212.48 291.397 212.519 291.339 212.528 291.29L212.635 289.246C212.684 288.418 213.064 287.63 213.697 287.026L214.797 285.994C214.845 285.946 214.855 285.887 214.845 285.858C214.836 285.829 214.797 285.78 214.719 285.78H214.709L213.21 285.683C212.334 285.624 211.535 285.255 210.98 284.641L210.727 284.359L209.618 283.142C209.618 283.142 209.501 283.093 209.433 283.123C209.364 283.152 209.316 283.21 209.296 283.259L209.189 285.284C209.15 286.053 208.81 286.802 208.245 287.387L208.128 287.503L207.145 288.428L207.018 288.545C206.96 288.594 206.96 288.652 206.97 288.681C206.979 288.71 207.018 288.749 207.096 288.759L208.605 288.856C209.472 288.915 210.28 289.285 210.834 289.898L211.088 290.18L211.097 290.171Z" fill="white"/>
<path d="M221.893 446.133L222.37 447.72C222.37 447.72 222.438 447.817 222.526 447.827C222.614 447.836 222.672 447.797 222.701 447.759L223.675 445.958C224.074 445.227 224.755 444.682 225.583 444.41L227.024 443.952C227.092 443.933 227.121 443.884 227.121 443.845C227.121 443.806 227.101 443.758 227.043 443.719H227.033L225.729 442.979C224.969 442.55 224.405 441.869 224.161 441.08L224.054 440.72L223.577 439.143C223.577 439.143 223.499 439.056 223.412 439.046C223.324 439.036 223.266 439.065 223.237 439.114L222.273 440.895C221.903 441.577 221.28 442.103 220.521 442.385L220.365 442.443L219.08 442.852L218.914 442.901C218.846 442.92 218.817 442.969 218.807 443.008C218.798 443.047 218.827 443.096 218.885 443.134L220.209 443.874C220.968 444.303 221.533 444.984 221.776 445.773L221.883 446.133H221.893Z" fill="white"/>
<path d="M193.409 370.493C192.71 370.493 192.143 369.926 192.143 369.227C192.143 368.529 192.71 367.962 193.409 367.962C194.108 367.962 194.674 368.529 194.674 369.227C194.674 369.926 194.108 370.493 193.409 370.493Z" fill="white"/>
<path d="M210.737 304.149C210.038 304.149 209.471 303.583 209.471 302.884C209.471 302.185 210.038 301.618 210.737 301.618C211.436 301.618 212.002 302.185 212.002 302.884C212.002 303.583 211.436 304.149 210.737 304.149Z" fill="white"/>
<path d="M185.806 417.951C185.107 417.951 184.541 417.384 184.541 416.685C184.541 415.987 185.107 415.42 185.806 415.42C186.505 415.42 187.072 415.987 187.072 416.685C187.072 417.384 186.505 417.951 185.806 417.951Z" fill="white"/>
<path d="M169.413 387.637C168.714 387.637 168.147 387.07 168.147 386.371C168.147 385.672 168.714 385.105 169.413 385.105C170.112 385.105 170.678 385.672 170.678 386.371C170.678 387.07 170.112 387.637 169.413 387.637Z" fill="white"/>
<path d="M218.681 404.634C217.982 404.634 217.415 404.067 217.415 403.368C217.415 402.669 217.982 402.103 218.681 402.103C219.379 402.103 219.946 402.669 219.946 403.368C219.946 404.067 219.379 404.634 218.681 404.634Z" fill="white"/>
<path d="M216.12 277.194C215.421 277.194 214.855 276.628 214.855 275.929C214.855 275.23 215.421 274.663 216.12 274.663C216.819 274.663 217.386 275.23 217.386 275.929C217.386 276.628 216.819 277.194 216.12 277.194Z" fill="white"/>
<path d="M309.536 221.656L310.364 222.328C310.364 222.328 310.432 222.357 310.49 222.328C310.549 222.299 310.559 222.26 310.559 222.23L310.422 220.916C310.374 220.391 310.539 219.845 310.88 219.398L311.483 218.629C311.483 218.629 311.513 218.56 311.493 218.531C311.474 218.502 311.454 218.492 311.405 218.492L310.442 218.58C309.877 218.629 309.332 218.473 308.923 218.132L308.728 217.976L307.901 217.314C307.901 217.314 307.823 217.295 307.774 217.314C307.726 217.334 307.706 217.382 307.706 217.412L307.842 218.706C307.891 219.203 307.745 219.709 307.443 220.137L307.375 220.225L306.84 220.906L306.772 220.994C306.772 220.994 306.742 221.062 306.752 221.082C306.762 221.101 306.791 221.121 306.84 221.121L307.813 221.033C308.378 220.984 308.923 221.14 309.332 221.481L309.527 221.637L309.536 221.656Z" fill="white"/>
<path d="M286.949 323.415C286.949 317.404 285.003 310.385 279.162 306.696C269.914 300.855 258.718 308.643 253.85 311.564" stroke="#10132C" stroke-width="3.40722" stroke-linecap="round"/>
<path d="M281.108 306.51L283.055 304.433" stroke="#10132C" stroke-width="3.40722" stroke-linecap="round"/>
<path d="M286.462 315.627L289.382 315.141" stroke="#10132C" stroke-width="3.40722" stroke-linecap="round"/>
<path d="M269.426 304.433L268.939 300.539" stroke="#10132C" stroke-width="3.40722" stroke-linecap="round"/>
<path d="M258.231 307.84L256.771 305.406" stroke="#10132C" stroke-width="3.40722" stroke-linecap="round"/>
<path d="M309.826 326.653C311.286 321.299 313.72 313.268 319.561 313.998C323.455 314.484 326.375 320.009 326.375 324.876" stroke="#10132C" stroke-width="2.92047" stroke-linecap="round"/>
<path d="M325.888 320.495L328.322 319.521" stroke="#10132C" stroke-width="2.92047" stroke-linecap="round"/>
<path d="M321.507 314.654L323.454 311.733" stroke="#10132C" stroke-width="2.92047" stroke-linecap="round"/>
<path d="M312.551 313.583C312.067 312.938 312.198 312.023 312.843 311.539C313.489 311.055 314.404 311.186 314.888 311.831L312.551 313.583ZM314.012 315.53L312.551 313.583L314.888 311.831L316.348 313.778L314.012 315.53Z" fill="#10132C"/>
<path d="M310.799 321.785L308.365 320.981" stroke="#10132C" stroke-width="2.92047" stroke-linecap="round"/>
<defs>
<linearGradient id="paint0_linear_262_1100" x1="281.108" y1="390.1" x2="293.276" y2="411.03" gradientUnits="userSpaceOnUse">
<stop stop-color="#3F4AAF"/>
<stop offset="1" stop-color="#3F4AAF" stop-opacity="0"/>
</linearGradient>
<clipPath id="clip0_262_1100">
<rect width="116.54" height="95.73" fill="white" transform="matrix(-0.37528 -0.926911 -0.926911 0.37528 383.045 158.574)"/>
</clipPath>
</defs>
</svg>
